<?xml version="1.0" encoding="UTF-8"?>
<svg width="14px" height="12px" viewBox="0 0 14 12" version="1.1" xmlns="http://www.w3.org/2000/svg" xmlns:xlink="http://www.w3.org/1999/xlink">
    <!-- Generator: Sketch 53.2 (72643) - https://sketchapp.com -->
    <title>日历</title>
    <desc>Created with Sketch.</desc>
    <g id="Page-1" stroke="none" stroke-width="1" fill="none" fill-rule="evenodd">
        <g id="审核管理-审核变更-扩租" transform="translate(-311.000000, -1673.000000)" fill="#FFFFFF">
            <g id="数据列表" transform="translate(249.000000, 123.000000)">
                <g id="buzhou1" transform="translate(31.000000, 301.000000)">
                    <g transform="translate(0.000000, 709.000000)" id="表格-Table---带复选框表格">
                        <g transform="translate(1.000000, 510.000000)">
                            <g id="日历" transform="translate(30.000000, 30.000000)">
                                <path d="M9.92698943,6.540625 L4.07145242,6.540625 C3.80189204,6.540625 3.5837507,6.321875 3.5837507,6.0515625 L3.5837507,6.0515625 C3.5837507,5.78125 3.80189204,5.5625 4.07145242,5.5625 L9.92854758,5.5625 C10.198108,5.5625 10.4162493,5.78125 10.4162493,6.0515625 L10.4162493,6.0515625 C10.4146912,6.321875 10.1965498,6.540625 9.92698943,6.540625 L9.92698943,6.540625 Z M9.92698943,3.8921875 L4.07145242,3.8921875 C3.80189204,3.8921875 3.5837507,3.6734375 3.5837507,3.403125 L3.5837507,3.403125 C3.5837507,3.1328125 3.80189204,2.9140625 4.07145242,2.9140625 L9.92854758,2.9140625 C10.198108,2.9140625 10.4162493,3.1328125 10.4162493,3.403125 L10.4162493,3.403125 C10.4146912,3.6734375 10.1965498,3.8921875 9.92698943,3.8921875 L9.92698943,3.8921875 Z M12.8765721,11.125 L11.0753478,11.125 L11.0753478,11.5109375 C11.0753478,11.78125 10.8572065,12 10.5876461,12 L10.5876461,12 C10.3180857,12 10.0999444,11.78125 10.0999444,11.5109375 L10.0999444,11.125 L3.8984975,11.125 L3.8984975,11.5109375 C3.8984975,11.78125 3.68035615,12 3.41079577,12 L3.41079577,12 C3.14123539,12 2.92309405,11.78125 2.92309405,11.5109375 L2.92309405,11.125 L1.12186978,11.125 C0.501725097,11.125 0,10.621875 0,10 L0,1.125 C0,0.503125 0.501725097,-3.55271368e-15 1.12186978,-3.55271368e-15 L12.8781302,-3.55271368e-15 C13.4982749,-3.55271368e-15 14,0.503125 14,1.125 L14,10 C13.9984418,10.6203125 13.4967168,11.125 12.8765721,11.125 L12.8765721,11.125 Z M1.12186978,10 L2.9246522,10 L2.9246522,9.746875 C2.9246522,9.4765625 3.14279354,9.2578125 3.41235392,9.2578125 L3.41235392,9.2578125 C3.6819143,9.2578125 3.90005565,9.4765625 3.90005565,9.746875 L3.90005565,10 L10.1015025,10 L10.1015025,9.746875 C10.1015025,9.4765625 10.3196439,9.2578125 10.5892042,9.2578125 L10.5892042,9.2578125 C10.8587646,9.2578125 11.076906,9.4765625 11.076906,9.746875 L11.076906,10 L12.8796884,10 L12.8796884,10 L12.8796884,8.4671875 L1.12186978,8.4671875 L1.12186978,10 L1.12186978,10 L1.12186978,10 Z M12.8765721,1.125 L1.12186978,1.125 L1.12186978,1.125 L1.12186978,7.49375 L12.8781302,7.49375 L12.8781302,1.125 L12.8765721,1.125 L12.8765721,1.125 Z" id="Shape" transform="translate(7.000000, 6.000000) scale(1, -1) translate(-7.000000, -6.000000) "></path>
                            </g>
                        </g>
                    </g>
                </g>
            </g>
        </g>
    </g>
</svg>