<?xml version="1.0" encoding="UTF-8"?>
<svg width="11px" height="11px" viewBox="0 0 11 11" version="1.1" xmlns="http://www.w3.org/2000/svg" xmlns:xlink="http://www.w3.org/1999/xlink">
    <!-- Generator: Sketch 53.2 (72643) - https://sketchapp.com -->
    <title>审核</title>
    <desc>Created with Sketch.</desc>
    <g id="Page-1" stroke="none" stroke-width="1" fill="none" fill-rule="evenodd">
        <g id="审核管理-订单审核" transform="translate(-1282.000000, -385.000000)" fill-rule="nonzero">
            <g id="数据列表" transform="translate(249.000000, 123.000000)">
                <g id="表格-Table---带复选框表格" transform="translate(17.000000, 191.000000)">
                    <g id="分组-2" transform="translate(0.000000, 51.000000)">
                        <g id="审核" transform="translate(1013.000000, 17.000000)">
                            <rect id="矩形" fill="#000000" opacity="0" x="0" y="0" width="16" height="16"></rect>
                            <path d="M5.22685279,9.56396921 L5.22685279,10.5433181 L7.46536449,10.5433181 L7.46536449,9.56396921 L5.22685279,9.56396921 Z M7.46536449,11.650915 L5.22685279,11.650915 L5.22685279,12.2571786 L4.03764345,12.2571786 L4.03764345,6.38108539 L7.46536449,6.38108539 L7.46536449,5.42505436 L8.67789165,5.42505436 L8.67789165,6.38108539 L12.1405894,6.38108539 L12.1405894,12.2222019 L10.9513801,12.2222019 L10.9513801,11.650915 L8.67789165,11.650915 L8.67789165,13.9477213 L7.46536449,13.9477213 L7.46536449,11.650915 L7.46536449,11.650915 Z M8.67789165,10.5433181 L10.9513801,10.5433181 L10.9513801,9.56396921 L8.67789165,9.56396921 L8.67789165,10.5433181 Z M10.9513801,8.50300794 L10.9513801,7.50034124 L8.67789165,7.50034124 L8.67789165,8.50300794 L10.9513801,8.50300794 Z M7.46536449,7.50034124 L5.22685279,7.50034124 L5.22685279,8.50300794 L7.46536449,8.50300794 L7.46536449,7.50034124 L7.46536449,7.50034124 Z M13.026667,3.87441863 L13.026667,6.13624817 L11.8374577,6.13624817 L11.8374577,4.98201557 L4.18920934,4.98201557 L4.18920934,6.19454275 L3,6.19454275 L3,3.87441863 L7.32545751,3.87441863 C7.23368718,3.64878533 7.13255554,3.42707366 7.02232571,3.20986047 L8.31646529,3 C8.40973662,3.25649613 8.50300792,3.54796902 8.59627925,3.87441863 L13.026667,3.87441863 Z" id="形状" fill="#FF5555"></path>
                        </g>
                    </g>
                </g>
            </g>
        </g>
    </g>
</svg>