<?xml version="1.0" encoding="UTF-8"?>
<svg width="16px" height="17px" viewBox="0 0 16 17" version="1.1" xmlns="http://www.w3.org/2000/svg" xmlns:xlink="http://www.w3.org/1999/xlink">
    <!-- Generator: Sketch 53.2 (72643) - https://sketchapp.com -->
    <title>审批管理选中</title>
    <desc>Created with Sketch.</desc>
    <defs>
        <linearGradient x1="20.6298828%" y1="24.261545%" x2="100%" y2="92.6130605%" id="linearGradient-1">
            <stop stop-color="#7CD4FF" offset="0%"></stop>
            <stop stop-color="#0078FF" offset="100%"></stop>
        </linearGradient>
    </defs>
    <g id="Page-1" stroke="none" stroke-width="1" fill="none" fill-rule="evenodd">
        <g id="导航样式2" transform="translate(-24.000000, -627.000000)" fill-rule="nonzero">
            <g id="纵导航">
                <g id="审批管理选中" transform="translate(24.000000, 627.000000)">
                    <rect id="矩形" fill="#000000" opacity="0" x="0" y="0" width="16" height="16"></rect>
                    <path d="M14.4615385,16.0783654 L1.53846154,16.0783654 C1.24230769,16.0783654 1,15.8360577 1,15.5399038 C1,15.24375 1.24230769,15.0014423 1.53846154,15.0014423 L14.4615385,15.0014423 C14.7576923,15.0014423 15,15.24375 15,15.5399038 C15,15.8360577 14.7576923,16.0783654 14.4615385,16.0783654 Z" id="形状-path" stroke="#39A3FF" stroke-width="0.3" fill="#39A3FF"></path>
                    <path d="M14.4615385,12.9245192 L1.53846154,12.9245192 C1.24230769,12.9245192 1,12.6822115 1,12.3860577 L1,9.69375 C1,8.80528846 1.72692308,8.07836538 2.61538462,8.07836538 L6.06153846,8.07836538 C5.95384615,7.43221154 5.63076923,6.81298077 5.17307692,6.27451923 C4.55384615,5.57451923 4.23076923,4.68605769 4.23076923,3.77067308 C4.23076923,2.74759615 4.63461538,1.77836538 5.38846154,1.05144231 C6.14230769,0.324519231 7.11153846,-0.0254807692 8.16153846,0.00144230769 C10.1,0.0822115385 11.7423077,1.75144231 11.7692308,3.68990385 C11.7961538,4.65913462 11.4192308,5.60144231 10.7730769,6.32836538 C10.3153846,6.81298077 10.0461538,7.40528846 9.93846154,8.07836538 L13.3846154,8.07836538 C14.2730769,8.07836538 15,8.80528846 15,9.69375 L15,12.3860577 C15,12.6822115 14.7576923,12.9245192 14.4615385,12.9245192 Z" id="形状-path" fill="url(#linearGradient-1)"></path>
                </g>
            </g>
        </g>
    </g>
</svg>