<?xml version="1.0" encoding="UTF-8"?>
<svg width="14px" height="15px" viewBox="0 0 14 15" version="1.1" xmlns="http://www.w3.org/2000/svg" xmlns:xlink="http://www.w3.org/1999/xlink">
    <!-- Generator: Sketch 53.2 (72643) - https://sketchapp.com -->
    <title>审批管理</title>
    <desc>Created with Sketch.</desc>
    <g id="Page-1" stroke="none" stroke-width="1" fill="" fill-rule="evenodd">
        <g id="账单管理-办公服务订单" transform="translate(-25.000000, -490.000000)" fill-rule="nonzero">
            <g id="审批管理" transform="translate(24.000000, 490.000000)">
                <rect id="矩形" fill="#000000" opacity="0" x="0" y="0" width="16" height="16"></rect>
                <path d="M14,14.5 L2,14.5 C1.725,14.5 1.5,14.275 1.5,14 C1.5,13.725 1.725,13.5 2,13.5 L14,13.5 C14.275,13.5 14.5,13.725 14.5,14 C14.5,14.275 14.275,14.5 14,14.5 Z M14,12.5 L2,12.5 C1.725,12.5 1.5,12.275 1.5,12 L1.5,9.5 C1.5,8.675 2.175,8 3,8 L6.2,8 C6.1,7.4 5.8,6.825 5.375,6.325 C4.8,5.675 4.5,4.85 4.5,4 C4.5,3.05 4.875,2.15 5.575,1.475 C6.275,0.8 7.175,0.475 8.15,0.5 C9.95,0.575 11.475,2.125 11.5,3.925 C11.525,4.825 11.175,5.7 10.575,6.375 C10.15,6.825 9.9,7.375 9.8,8 L13,8 C13.825,8 14.5,8.675 14.5,9.5 L14.5,12 C14.5,12.275 14.275,12.5 14,12.5 Z M2.5,11.5 L13.5,11.5 L13.5,9.5 C13.5,9.225 13.275,9 13,9 L9.25,9 C8.975,9 8.75,8.775 8.75,8.5 C8.75,7.45 9.125,6.45 9.825,5.7 C10.275,5.225 10.5,4.6 10.5,3.95 C10.475,2.65 9.4,1.55 8.1,1.5 C7.4,1.475 6.75,1.725 6.275,2.2 C5.775,2.675 5.5,3.325 5.5,4 C5.5,4.6 5.725,5.2 6.125,5.65 C6.85,6.475 7.25,7.475 7.25,8.5 C7.25,8.775 7.025,9 6.75,9 L3,9 C2.725,9 2.5,9.225 2.5,9.5 L2.5,11.5 Z" id="形状" stroke="#656771" stroke-width="0.3" fill=""></path>
            </g>
        </g>
    </g>
</svg>