<?xml version="1.0" encoding="utf-8"?>
<!-- Generator: Adobe Illustrator 23.0.1, SVG Export Plug-In . SVG Version: 6.00 Build 0)  -->
<svg version="1.1" id="图层_1" xmlns="http://www.w3.org/2000/svg" xmlns:xlink="http://www.w3.org/1999/xlink" x="0px" y="0px"
	 viewBox="0 0 16 16" style="enable-background:new 0 0 16 16;" xml:space="preserve">
<style type="text/css">
	.st0{fill-opacity:0;}
	.st1{stroke:#656771;stroke-width:0.2;}
</style>
<title>合同管理</title>
<desc>Created with Sketch.</desc>
<g id="Page-1">
	<g id="账单管理-办公服务订单" transform="translate(-24.000000, -532.000000)">
		<g id="合同管理" transform="translate(24.000000, 532.000000)">
			<rect id="矩形" class="st0" width="16" height="16"/>
			<path id="路径" fill-rule="inherit" d="M7,14H3c-0.6,0-1-0.4-1-1V3c0-0.6,0.4-1,1-1h9c0.6,0,1,0.4,1,1v3.4c0.4,0.2,0.7,0.4,1,0.6V3
				c0-1.1-0.9-2-2-2H3C1.9,1,1,1.9,1,3v10c0,1.1,0.9,2,2,2h5C7.6,14.7,7.3,14.4,7,14z"/>
			<path id="形状" fill-rule="inherit" d="M11,7c-2.2,0-4,1.8-4,4s1.8,4,4,4s4-1.8,4-4S13.2,7,11,7z M11,14c-1.7,0-3-1.3-3-3s1.3-3,3-3
				s3,1.3,3,3S12.7,14,11,14z"/>
			<path fill-rule="inherit" d="M11.7,10.3L11,9l-0.7,1.3L9,10.5l0.9,1L9.8,13l1.2-0.6l1.2,0.6l-0.2-1.4l0.9-1L11.7,10.3z M11,5
				c0-0.3-0.2-0.5-0.5-0.5h-6C4.2,4.5,4,4.7,4,5s0.2,0.5,0.5,0.5h6C10.8,5.5,11,5.3,11,5z M7.5,7.5C7.5,7.2,7.3,7,7,7H4.5
				C4.2,7,4,7.2,4,7.5S4.2,8,4.5,8H7C7.3,8,7.5,7.8,7.5,7.5z M4.5,9.5C4.2,9.5,4,9.7,4,10s0.2,0.5,0.5,0.5h1C5.8,10.5,6,10.3,6,10
				S5.8,9.5,5.5,9.5H4.5z"/>
		</g>
	</g>
</g>
</svg>
