<?xml version="1.0" encoding="UTF-8"?>
<svg width="17px" height="18px" viewBox="0 0 17 18" version="1.1" xmlns="http://www.w3.org/2000/svg" xmlns:xlink="http://www.w3.org/1999/xlink">
    <!-- Generator: Sketch 53.2 (72643) - https://sketchapp.com -->
    <title>合同管理选中</title>
    <desc>Created with Sketch.</desc>
    <defs>
        <linearGradient x1="24.1864204%" y1="19.7998047%" x2="93.9453125%" y2="100%" id="linearGradient-1">
            <stop stop-color="#7CD4FF" offset="0%"></stop>
            <stop stop-color="#0078FF" offset="100%"></stop>
        </linearGradient>
        <linearGradient x1="20.1334635%" y1="13.6203342%" x2="84.1525608%" y2="83.186849%" id="linearGradient-2">
            <stop stop-color="#7CD4FF" offset="0%"></stop>
            <stop stop-color="#0078FF" offset="100%"></stop>
        </linearGradient>
    </defs>
    <g id="Page-1" stroke="none" stroke-width="1" fill="none" fill-rule="evenodd">
        <g id="导航样式2" transform="translate(-23.000000, -669.000000)" fill-rule="nonzero">
            <g id="纵导航">
                <g id="合同管理选中" transform="translate(23.000000, 669.000000)">
                    <rect id="矩形" fill="#000000" opacity="0" x="0" y="0" width="16" height="16"></rect>
                    <path d="M7.94846154,15.8571429 L3.30769231,15.8571429 C2.67044067,15.8571429 2.15384615,15.3454682 2.15384615,14.7142857 L2.15384615,3.28571429 C2.15384615,2.65453171 2.67044067,2.14285714 3.30769231,2.14285714 L13.6923077,2.14285714 C14.3295593,2.14285714 14.8461538,2.65453171 14.8461538,3.28571429 L14.8461538,7.19657143 C15.2615385,7.37714286 15.6411538,7.61485714 16,7.88342857 L16,3.28571429 C16,2.02334914 14.966811,1 13.6923077,1 L3.30769231,1 C2.03318904,1 1,2.02334914 1,3.28571429 L1,14.7142857 C1,15.9766509 2.03318904,17 3.30769231,17 L9.10807692,17 C8.6690826,16.6750917 8.27867941,16.2903304 7.94846154,15.8571429 Z" id="路径" stroke="url(#linearGradient-1)" stroke-width="0.2" fill="url(#linearGradient-1)"></path>
                    <path d="M12.5,8 C10.0147186,8 8,10.0147186 8,12.5 C8,14.9852814 10.0147186,17 12.5,17 C14.9852814,17 17,14.9852814 17,12.5 C17,10.0147186 14.9852814,8 12.5,8 Z" id="形状" fill="url(#linearGradient-2)"></path>
                    <path d="M12.5555556,5.11764706 C12.5555556,4.77653001 12.2819518,4.5 11.9444444,4.5 L4.61111111,4.5 C4.27360377,4.5 4,4.77653001 4,5.11764706 C4,5.4587641 4.27360377,5.73529412 4.61111111,5.73529412 L11.9444444,5.73529412 C12.2819518,5.73529412 12.5555556,5.4587641 12.5555556,5.11764706 Z M8.27777778,8.20588235 C8.27777778,7.86476531 8.00417401,7.58823529 7.66666667,7.58823529 L4.61111111,7.58823529 C4.27360377,7.58823529 4,7.86476531 4,8.20588235 C4,8.5469994 4.27360377,8.82352941 4.61111111,8.82352941 L7.66666667,8.82352941 C8.00417401,8.82352941 8.27777778,8.5469994 8.27777778,8.20588235 Z M4.61111111,10.6764706 C4.27360377,10.6764706 4,10.9530006 4,11.2941176 C4,11.6352347 4.27360377,11.9117647 4.61111111,11.9117647 L5.83333333,11.9117647 C6.17084067,11.9117647 6.44444444,11.6352347 6.44444444,11.2941176 C6.44444444,10.9530006 6.17084067,10.6764706 5.83333333,10.6764706 L4.61111111,10.6764706 Z" id="形状" stroke="#42AAFF" stroke-width="0.2" fill="#56ADF4"></path>
                    <polygon id="形状-path" stroke="#FFFFFF" stroke-width="0.2" fill="#FFFFFF" points="13.361 11.6115882 12.5555556 10.0588235 11.7501111 11.6115882 10.1111111 11.9463529 11.2526667 13.2397059 11.0448889 15 12.5555556 14.2477059 14.0662222 15 13.8584444 13.2397059 15 11.9463529"></polygon>
                </g>
            </g>
        </g>
    </g>
</svg>