<?xml version="1.0" encoding="UTF-8"?>
<svg width="54px" height="56px" viewBox="0 0 54 56" version="1.1" xmlns="http://www.w3.org/2000/svg" xmlns:xlink="http://www.w3.org/1999/xlink">
    <!-- Generator: Sketch 53.2 (72643) - https://sketchapp.com -->
    <title>续租</title>
    <desc>Created with Sketch.</desc>
    <defs>
        <linearGradient x1="50%" y1="0%" x2="50%" y2="100%" id="linearGradient-16">
            <stop stop-color="#FFE282" offset="0%"></stop>
            <stop stop-color="#FF9B00" offset="100%"></stop>
        </linearGradient>
    </defs>
    <g id="Page-1" stroke="none" stroke-width="1" fill="none" fill-rule="evenodd">
        <g id="审核管理-待我审核" transform="translate(-1228.000000, -505.000000)">
            <g id="数据列表" transform="translate(249.000000, 372.000000)">
                <g id="续租" transform="translate(979.000000, 133.000000)">
                    <path d="M48.4663689,0 L5.5298812,0 C2.4793202,0 0,2.5565645 0,5.70228844 L0,49.985266 C0,53.1309355 2.47926743,55.6875 5.5298812,55.6875 L48.4701716,55.6875 C51.5207326,55.6875 54,53.1309355 54,49.985266 L54,5.69836731 C53.996303,2.55264332 51.5168772,0 48.4663689,0 Z" id="形状" fill="url(#linearGradient-16)" fill-rule="nonzero"></path>
                    <g transform="translate(11.000000, 16.000000)" fill-rule="nonzero">
                        <rect id="矩形" fill="#000000" opacity="0" x="0" y="0" width="31" height="31"></rect>
                        <path d="M19.3652976,7.34991764 C19.2483569,6.04000819 19.873259,5.44024628 21.2290408,5.55431143 L27.258798,5.55431143 C28.3331911,5.55431143 28.8703877,6.09888053 28.8703877,7.18065968 L28.8703877,23.0025996 L30.2261695,23.0025996 C30.6793149,23.0025996 30.9314683,23.2601661 30.9899387,23.7716195 C30.9314683,24.2830729 30.6793149,24.5406394 30.2261695,24.5406394 L17.8377591,24.5406394 C17.3297978,24.5406394 17.0447547,24.2830729 16.9899387,23.7716195 C17.0995707,23.2601661 17.4138489,23.0025996 17.9218103,23.0025996 L19.3652976,23.0025996 L19.3652976,7.34991764 Z M26.9835506,8.14398963 C27.0358065,7.62788134 26.7675598,7.39480018 26.1753268,7.44807588 L21.6464866,7.44807588 C21.1587653,7.39812991 20.9427745,7.62788134 20.998514,8.14398963 L20.998514,11.2406394 L26.9835506,11.2406394 L26.9835506,8.14398963 Z M26.9899387,13.1406394 L20.9899387,13.1406394 L20.9899387,16.9406394 L26.9899387,16.9406394 L26.9899387,13.1406394 Z M26.9899387,18.8406394 L20.9899387,18.8406394 L20.9899387,22.6406394 L26.9899387,22.6406394 L26.9899387,18.8406394 Z" id="合并形状" stroke="#FFFFFF" stroke-width="0.6" fill="#FFFFFF"></path>
                        <path d="M19.6409886,18.7044729 C20.0850086,18.3773869 20.1178989,17.9412722 19.7355484,17.3961288 C19.0982976,16.5801722 17.8895766,15.1874187 16.1093855,13.2249025 L16.1093855,12.8169242 L18.7817278,12.8169242 C19.2915285,12.8169242 19.5464288,12.5707304 19.5464288,12.0818598 C19.5464288,11.6457451 19.2915285,11.4276878 18.7817278,11.4276878 L16.1093855,11.4276878 L16.1093855,7.99504284 C17.1906563,7.77698548 17.9841364,7.61520098 18.4939371,7.5061723 C19.0037378,7.34438781 19.2257477,7.01730177 19.1640783,6.52491418 C18.9708474,6.08879945 18.5926082,5.9234979 18.0170268,6.03252659 C16.171055,6.4158855 14.1030732,6.65856224 11.8130814,6.76759092 C11.1758306,6.82386379 10.8592608,7.09467696 10.8592608,7.5835475 C10.9209303,8.07241803 11.2703904,8.31861183 11.9076412,8.31861183 C12.224211,8.31861183 12.6394519,8.2904754 13.1492526,8.23771958 C13.7865034,8.23771958 14.197633,8.20958315 14.3908639,8.15682733 L14.3908639,11.4276878 L10.9538206,11.4276878 C10.3823505,11.4276878 10.0616694,11.6457451 10,12.0818598 C10,12.5707304 10.2877907,12.8169242 10.8592608,12.8169242 L13.9139536,12.8169242 C13.0875831,14.6704118 11.8747509,16.5766551 10.2877907,18.5391714 C9.9054402,18.9752861 9.93833056,19.3832644 10.3823505,19.7666233 C10.8263705,20.0409535 11.3032808,19.9565442 11.8130814,19.5204295 C13.0218024,17.9412722 13.8810632,16.6047916 14.3908639,15.5145048 L14.3908639,24.4267202 C14.4525333,24.806562 14.740324,25 15.2501247,25 C15.8215948,24.9437271 16.1093855,24.7256698 16.1093855,24.3458279 L16.1093855,15.6798063 C16.7466364,16.3902513 17.4455567,17.2871001 18.2102577,18.3773869 C18.6542776,18.8697745 19.1311879,18.9788032 19.6409886,18.7044729 L19.6409886,18.7044729 Z" id="路径" stroke="#FFFFFF" stroke-width="0.6" fill="#FFFFFF"></path>
                    </g>
                    <g id="订单" transform="translate(11.000000, 11.000000)">
                        <rect id="矩形" fill="#000000" fill-rule="nonzero" opacity="0" x="0" y="0" width="17" height="17"></rect>
                        <rect id="矩形" fill="#FFFFFF" x="3" y="5" width="5" height="1" rx="0.5"></rect>
                        <rect id="矩形" fill="#FFFFFF" x="3" y="8" width="9" height="1" rx="0.5"></rect>
                        <path d="M8.71821898,15.9377052 C6.08112211,15.9377052 3.15385404,15.9377052 3.15385404,15.9377052 C2.55905946,15.9377052 2.0769441,15.4620538 2.0769441,14.8753423 L2.0769441,2.12746427 C2.0769441,1.54065082 2.55909363,1.06513543 3.15385404,1.06513543 L9.60010982,1.06513543 C9.5903042,2.33714249 9.61538199,3.18975911 9.61538199,3.18975911 C9.61538199,4.36325004 10.579681,5.31441679 11.769236,5.31441679 C11.769236,5.31441679 12.669269,5.31441679 13.9230901,5.31441679 C13.9230901,5.31441679 13.9230901,7.84949034 13.9230901,9.3759124 C13.9230901,9.88827784 15,9.95507708 15,9.38536287 C15,7.85431756 15,5.31441679 15,5.31441679 L15,4.25208795 L10.6922919,0.00277260289 L10.6922919,0.0180021491 C10.6230034,0.0180021491 10.3361122,-0.00844558962 9.61538199,0.00277260289 L3.15385404,0.00277260289 C1.96429905,0.00277260289 1,0.954007339 1,2.12746427 L1,14.8753083 C1,16.0487653 1.96429905,17 3.15385404,17 C3.15385404,17 8.42172709,16.999932 8.686718,17 C9.20525423,17.000204 9.31591766,15.9377052 8.71821898,15.9377052 Z M10.6922919,1.06513543 L13.9230559,4.25205396 L11.7692019,4.25205396 C11.1744414,4.25205396 10.6922919,3.77640259 10.6922919,3.18972512 C10.6922919,3.18972512 10.6922919,2.32983367 10.6922919,1.06513543 Z" id="形状" fill="#FFFFFF" fill-rule="nonzero"></path>
                    </g>
                </g>
            </g>
        </g>
    </g>
</svg>