<?xml version="1.0" encoding="UTF-8"?>
<svg width="56px" height="56px" viewBox="0 0 56 56" version="1.1" xmlns="http://www.w3.org/2000/svg" xmlns:xlink="http://www.w3.org/1999/xlink">
    <!-- Generator: Sketch 53.2 (72643) - https://sketchapp.com -->
    <title>创建订单</title>
    <desc>Created with Sketch.</desc>
    <defs>
        <linearGradient x1="20.6298828%" y1="19.7998047%" x2="100%" y2="100%" id="linearGradient-01">
            <stop stop-color="#7CD4FF" offset="0%"></stop>
            <stop stop-color="#0078FF" offset="100%"></stop>
        </linearGradient>
    </defs>
    <g id="Page-1" stroke="none" stroke-width="1" fill="none" fill-rule="evenodd">
        <g id="审核管理-待我审核" transform="translate(-298.000000, -505.000000)" fill-rule="nonzero">
            <g id="数据列表" transform="translate(249.000000, 372.000000)">
                <g id="创建订单" transform="translate(49.000000, 133.000000)">
                    <path d="M50.2614197,0 L5.73469162,0 C2.57114688,0 0,2.5709111 0,5.73428782 L0,50.2657669 C0,53.4290889 2.57109214,56 5.73469162,56 L50.2653631,56 C53.4289079,56 56,53.4290889 56,50.2657669 L56,5.73034468 C55.9961661,2.56696792 53.4249097,0 50.2614197,0 Z" id="形状" fill="url(#linearGradient-01)"></path>
                    <g id="订单" transform="translate(12.000000, 11.000000)">
                        <rect id="矩形" fill="#000000" opacity="0" x="0" y="0" width="34" height="34"></rect>
                        <path d="M17.3921289,31.4601602 C12.2665625,31.4601602 6.57700781,31.4601602 6.57700781,31.4601602 C5.42094141,31.4601602 4.48388281,30.5310039 4.48388281,29.3848984 L4.48388281,4.4826875 C4.48388281,3.33638281 5.42100781,2.40749219 6.57700781,2.40749219 L19.106207,2.40749219 C19.0871484,4.89228125 19.1358906,6.55781641 19.1358906,6.55781641 C19.1358906,8.85016016 21.0101406,10.708207 23.322207,10.708207 C23.322207,10.708207 25.0715469,10.708207 27.5085234,10.708207 C27.5085234,10.708207 27.5085234,15.6603203 27.5085234,18.6420937 C27.5085234,19.6429687 29.6016484,19.773457 29.6016484,18.6605547 C29.6016484,15.66975 29.6016484,10.708207 29.6016484,10.708207 L29.6016484,8.63301172 L21.2290156,0.332230469 L21.2290156,0.361980469 C21.0943438,0.361980469 20.5367305,0.310316406 19.1358906,0.332230469 L6.57700781,0.332230469 C4.26494141,0.332230469 2.39069141,2.19041016 2.39069141,4.4826875 L2.39069141,29.384832 C2.39069141,31.6771094 4.26494141,33.5352891 6.57700781,33.5352891 C6.57700781,33.5352891 16.8158555,33.5351562 17.3309023,33.5352891 C18.33875,33.5356875 18.5538398,31.4601602 17.3921289,31.4601602 Z M21.2290156,2.40749219 L27.508457,8.63294531 L23.3221406,8.63294531 C22.1661406,8.63294531 21.2290156,7.70378906 21.2290156,6.55775 C21.2290156,6.55775 21.2290156,4.87800391 21.2290156,2.40749219 Z M8,10 L15,10 C15.5522847,10 16,10.4477153 16,11 L16,11 C16,11.5522847 15.5522847,12 15,12 L8,12 C7.44771525,12 7,11.5522847 7,11 L7,11 C7,10.4477153 7.44771525,10 8,10 Z M8,15 L23,15 C23.5522847,15 24,15.4477153 24,16 L24,16 C24,16.5522847 23.5522847,17 23,17 L8,17 C7.44771525,17 7,16.5522847 7,16 L7,16 C7,15.4477153 7.44771525,15 8,15 Z" id="形状" fill="#FFFFFF"></path>
                        <g id="添加" transform="translate(18.000000, 20.000000)">
                            <rect id="矩形" fill="#000000" opacity="0" x="0" y="0" width="14" height="14"></rect>
                            <path d="M12.8312757,8.16460906 L1.16872428,8.16460906 C0.526748975,8.16460906 0,7.64609054 0,6.99588478 C0,6.35390947 0.51851852,5.8271605 1.16872428,5.8271605 L12.8312757,5.8271605 C13.473251,5.8271605 14,6.34567902 14,6.99588478 C14,7.64609054 13.4814815,8.16460906 12.8312757,8.16460906 L12.8312757,8.16460906 L12.8312757,8.16460906 Z M7.00411522,14 C6.36213992,14 5.83539094,13.4814815 5.83539094,12.8312757 L5.83539094,1.16872428 C5.83539094,0.51851852 6.35390946,0 7.00411522,0 C7.64609053,0 8.1728395,0.51851852 8.1728395,1.16872428 L8.1728395,12.8395062 C8.16460906,13.473251 7.64609054,14 7.00411522,14 L7.00411522,14 L7.00411522,14 Z" id="形状" fill="#FFFFFF"></path>
                        </g>
                    </g>
                </g>
            </g>
        </g>
    </g>
</svg>