<?xml version="1.0" encoding="UTF-8"?>
<svg width="12px" height="14px" viewBox="0 0 12 14" version="1.1" xmlns="http://www.w3.org/2000/svg" xmlns:xlink="http://www.w3.org/1999/xlink">
    <!-- Generator: Sketch 53.2 (72643) - https://sketchapp.com -->
    <title>删除</title>
    <desc>Created with Sketch.</desc>
    <g id="Page-1" stroke="none" stroke-width="1" fill="none" fill-rule="evenodd">
        <g id="场地管理-楼盘列表" transform="translate(-1283.000000, -641.000000)" fill-rule="nonzero">
            <g id="数据列表" transform="translate(249.000000, 336.000000)">
                <g id="表格-Table---带复选框表格" transform="translate(17.000000, 238.000000)">
                    <g id="删除" transform="translate(1015.000000, 66.000000)">
                        <rect id="矩形" fill="#000000" opacity="0" x="0" y="0" width="16" height="16"></rect>
                        <path d="M13.2459844,3.49926562 L10.0099844,3.49926562 C9.96104688,2.422375 9.06971875,1.5613125 7.98095312,1.5613125 C6.8921875,1.5613125 6.00085938,2.422375 5.95192188,3.49926562 L2.707125,3.49926562 C2.43098437,3.49926562 2.207125,3.723125 2.207125,3.99926562 C2.207125,4.27540625 2.43098437,4.49926562 2.707125,4.49926562 L13.2459844,4.49926562 C13.522125,4.49926562 13.7459844,4.27540625 13.7459844,3.99926562 C13.7459844,3.723125 13.522125,3.49926562 13.2459844,3.49926562 Z M7.98095313,2.56129688 C8.518125,2.56129688 8.96046875,2.97420312 9.00779688,3.49925 L6.954125,3.49925 C7.00145312,2.97420312 7.44378125,2.56129688 7.98095312,2.56129688 L7.98095313,2.56129688 Z M11.9959844,5.49671875 C11.7198438,5.49671875 11.4959844,5.72057812 11.4959844,5.99671875 L11.4959844,13.4681719 L4.504,13.4681719 L4.504,5.99671875 C4.504,5.72057812 4.28014062,5.49671875 4.004,5.49671875 C3.72785937,5.49671875 3.504,5.72057812 3.504,5.99671875 L3.504,13.9681719 C3.504,14.2443125 3.72785937,14.4681719 4.004,14.4681719 L11.9959844,14.4681719 C12.272125,14.4681719 12.4959844,14.2443125 12.4959844,13.9681719 L12.4959844,5.99671875 C12.4959844,5.72057812 12.272125,5.49671875 11.9959844,5.49671875 L11.9959844,5.49671875 Z" id="形状" fill="#FF5555"></path>
                        <path d="M7,11.5410264 L7,7.45898799 C7,7.20549753 6.77614063,7 6.5,7 C6.22385937,7 6,7.20549753 6,7.45898799 L6,11.541012 C6,11.7945025 6.22385937,12 6.5,12 C6.77614063,12 7,11.7945168 7,11.5410264 Z M10,11.5410264 L10,7.45898799 C10,7.20549753 9.77614063,7 9.5,7 C9.22385937,7 9,7.20549753 9,7.45898799 L9,11.541012 C9,11.7945025 9.22385937,12 9.5,12 C9.77614063,12 10,11.7945168 10,11.5410264 Z" id="形状" fill="#FF5555"></path>
                    </g>
                </g>
            </g>
        </g>
    </g>
</svg>