<?xml version="1.0" encoding="UTF-8"?>
<svg width="54px" height="56px" viewBox="0 0 54 56" version="1.1" xmlns="http://www.w3.org/2000/svg" xmlns:xlink="http://www.w3.org/1999/xlink">
    <!-- Generator: Sketch 53.2 (72643) - https://sketchapp.com -->
    <title>提前终止</title>
    <desc>Created with Sketch.</desc>
    <defs>
        <linearGradient x1="50%" y1="0%" x2="50%" y2="100%" id="linearGradient-12">
            <stop stop-color="#FFE282" offset="0%"></stop>
            <stop stop-color="#FF9B00" offset="100%"></stop>
        </linearGradient>
    </defs>
    <g id="Page-1" stroke="none" stroke-width="1" fill="none" fill-rule="evenodd">
        <g id="审核管理-待我审核" transform="translate(-610.000000, -505.000000)" fill-rule="nonzero">
            <g id="数据列表" transform="translate(249.000000, 372.000000)">
                <g id="提前终止" transform="translate(361.000000, 133.000000)">
                    <path d="M48.4663689,0 L5.5298812,0 C2.4793202,0 0,2.5565645 0,5.70228844 L0,49.985266 C0,53.1309355 2.47926743,55.6875 5.5298812,55.6875 L48.4701716,55.6875 C51.5207326,55.6875 54,53.1309355 54,49.985266 L54,5.69836731 C53.996303,2.55264332 51.5168772,0 48.4663689,0 Z" id="形状" fill="url(#linearGradient-12)"></path>
                    <g id="创建工单" transform="translate(7.000000, 7.000000)">
                        <rect id="矩形" fill="#000000" opacity="0" x="0" y="0" width="40" height="40"></rect>
                        <g id="终止" transform="translate(2.000000, 5.000000)">
                            <rect id="矩形" fill="#000000" opacity="0" x="0" y="2" width="33" height="33"></rect>
                            <polygon id="形状" stroke="#FFFFFF" fill="#FFFFFF" points="14 13 22 13 22 21 14 21"></polygon>
                            <path d="M20.5499399,31.6828949 C12.3969987,31.6828949 5.72641045,25.0123067 5.72641045,16.8593655 C5.72641045,8.70642434 12.3969987,2.0358361 20.5499399,2.0358361 C25.6455281,2.0358361 30.3705281,4.62995375 33.0572928,8.98436551 C33.335234,9.44760081 33.2425869,10.0034832 32.7793516,10.2814243 C32.3161163,10.5593655 31.760234,10.4667185 31.4822928,10.0034832 C29.1661163,6.11230669 24.9969987,3.88877728 20.5499399,3.88877728 C13.4161163,3.88877728 7.57935163,9.72554198 7.57935163,16.8593655 C7.57935163,23.993189 13.4161163,29.8299537 20.5499399,29.8299537 C24.2558222,29.8299537 27.7764105,28.2549537 30.185234,25.475542 C30.5558222,25.1049537 31.1117046,25.1049537 31.4822928,25.3828949 C31.852881,25.7534832 31.852881,26.3093655 31.5749399,26.6799537 C28.7955281,29.9226008 24.7190575,31.6828949 20.5499399,31.6828949 Z" id="路径" stroke="#FFFFFF" stroke-width="0.3" fill="#FFFFFF" transform="translate(19.470023, 16.859366) scale(-1, 1) rotate(8.000000) translate(-19.470023, -16.859366) "></path>
                            <path d="M9.44407748,11.4458846 L5.74003299,15.4432446 C5.37632779,15.7847697 4.83903102,15.8408982 4.41353919,15.4380387 C4.07201411,15.0743335 4.01588556,14.5370367 4.41874509,14.1115449 L7.75908439,10.45571 L4.02494084,7.28330423 C3.68341577,6.91959903 3.62728721,6.38230226 3.90702566,6.00162284 C4.27073085,5.66009777 4.80802762,5.60396921 5.18870704,5.88370766 L9.30918808,9.54293974 C9.60590074,9.78352385 9.74033798,10.1528871 9.79080846,10.483096 C9.91958762,10.6453715 9.80212461,10.8972717 9.72381593,11.0652052 C9.64550725,11.2331387 9.60635291,11.3171055 9.44407748,11.4458846 Z" id="形状" stroke="#FFFFFF" stroke-width="0.3" fill="#FFFFFF" transform="translate(6.788300, 10.712625) scale(-1, 1) rotate(69.000000) translate(-6.788300, -10.712625) "></path>
                        </g>
                    </g>
                </g>
            </g>
        </g>
    </g>
</svg>