<?xml version="1.0" encoding="UTF-8"?>
<svg width="11px" height="14px" viewBox="0 0 11 14" version="1.1" xmlns="http://www.w3.org/2000/svg" xmlns:xlink="http://www.w3.org/1999/xlink">
    <!-- Generator: Sketch 53.2 (72643) - https://sketchapp.com -->
    <title>编辑</title>
    <desc>Created with Sketch.</desc>
    <g id="Page-1" stroke="none" stroke-width="1" fill="none" fill-rule="evenodd">
        <g id="审核管理-订单审核" transform="translate(-1250.000000, -433.000000)" fill-rule="nonzero">
            <g id="数据列表" transform="translate(249.000000, 123.000000)">
                <g id="表格-Table---带复选框表格" transform="translate(17.000000, 191.000000)">
                    <g id="分组-2" transform="translate(0.000000, 101.000000)">
                        <g id="编辑" transform="translate(981.000000, 17.000000)">
                            <rect id="矩形" fill="#000000" opacity="0" x="0" y="0" width="16" height="16"></rect>
                            <path d="M8.7890625,2.709375 L10.5578125,3.98125 L6.1359375,10.2984375 L6.1328125,10.2984375 L6.059375,10.33125 L4.08125,11.203125 L4.321875,9.165625 L4.328125,9.1109375 L4.328125,9.0953125 C4.3328125,9.084375 4.3375,9.0703125 4.3421875,9.0609375 L8.7890625,2.709375 L8.7890625,2.709375 Z M8.7703125,1.75 C8.49375,1.75 8.221875,1.8734375 8.0640625,2.1109375 L3.5609375,8.54375 C3.475,8.671875 3.3890625,8.8875 3.3890625,9.0578125 L3.11875,11.346875 C3.11875,11.85 3.540625,12.203125 3.9796875,12.203125 C4.0640625,12.203125 4.15,12.190625 4.2328125,12.1625 L6.4359375,11.1921875 C6.6078125,11.15 6.7796875,11.0203125 6.8640625,10.8921875 L11.3671875,4.459375 C11.625,4.0734375 11.5390625,3.559375 11.153125,3.2578125 L9.2625,1.8984375 C9.1171875,1.7984375 8.94375,1.75 8.7703125,1.75 L8.7703125,1.75 Z M3.125,13.3125 L13.125,13.3125 L13.125,14.25 L3.125,14.25 L3.125,13.3125 Z" id="形状" fill="#36DCB6"></path>
                        </g>
                    </g>
                </g>
            </g>
        </g>
    </g>
</svg>