<?xml version="1.0" encoding="UTF-8"?>
<svg width="56px" height="56px" viewBox="0 0 56 56" version="1.1" xmlns="http://www.w3.org/2000/svg" xmlns:xlink="http://www.w3.org/1999/xlink">
    <!-- Generator: Sketch 53.2 (72643) - https://sketchapp.com -->
    <title>到期结算</title>
    <desc>Created with Sketch.</desc>
    <defs>
        <linearGradient x1="100%" y1="90.6131629%" x2="15.1160038%" y2="0%" id="linearGradient-11">
            <stop stop-color="#0BE3C2" offset="0%"></stop>
            <stop stop-color="#70FFF7" offset="100%"></stop>
        </linearGradient>
    </defs>
    <g id="Page-1" stroke="none" stroke-width="1" fill="none" fill-rule="evenodd">
        <g id="审核管理-待我审核" transform="translate(-454.000000, -505.000000)" fill-rule="nonzero">
            <g id="数据列表" transform="translate(249.000000, 372.000000)">
                <g id="到期结算" transform="translate(205.000000, 133.000000)">
                    <path d="M50.2614197,0 L5.73469162,0 C2.57114688,0 0,2.5709111 0,5.73428782 L0,50.2657669 C0,53.4290889 2.57109214,56 5.73469162,56 L50.2653631,56 C53.4289079,56 56,53.4290889 56,50.2657669 L56,5.73034468 C55.9961661,2.56696792 53.4249097,0 50.2614197,0 Z" id="形状" fill="url(#linearGradient-11)"></path>
                    <g id="结算" transform="translate(14.000000, 15.000000)">
                        <rect id="矩形" fill="#000000" opacity="0" x="0" y="0" width="29" height="29"></rect>
                        <path d="M14.5607752,29 C6.55234885,29 0,22.475 0,14.5 C0,6.525 6.55234885,0 14.5607752,0 C19.5660417,0 24.2072888,2.5375 26.8464293,6.796875 C27.1194439,7.25 27.028439,7.79375 26.5734148,8.065625 C26.1183906,8.3375 25.5723615,8.246875 25.299347,7.79375 C23.0242258,3.9875 18.9290078,1.8125 14.5607752,1.8125 C7.55340215,1.8125 1.8200969,7.521875 1.8200969,14.5 C1.8200969,21.478125 7.55340215,27.1875 14.5607752,27.1875 C18.200969,27.1875 21.6591531,25.646875 24.0252791,22.928125 C24.3892985,22.565625 24.9353276,22.565625 25.299347,22.8375 C25.6633663,23.2 25.6633663,23.74375 25.3903518,24.10625 C22.6602064,27.278125 18.6559933,29 14.5607752,29 Z" id="路径" stroke="#FFFFFF" stroke-width="0.3" fill="#FFFFFF"></path>
                        <path d="M26.8270841,10.2946359 C26.6462508,10.2946359 26.5558341,10.2946359 26.3750008,10.2040109 L21.3116675,8.57276088 C20.8595841,8.39151088 20.5883341,7.93838588 20.7691675,7.39463588 C20.9500008,6.94151088 21.4020841,6.66963588 21.9445841,6.85088588 L26.5558341,8.30088588 L27.8216675,3.67901088 C28.0025008,3.22588588 28.4545841,2.95401088 28.9066675,3.04463588 C29.3587508,3.22588588 29.6300008,3.67901088 29.5395841,4.13213588 L28.0025008,9.29776088 C27.9120841,9.66026088 27.6408341,9.93213588 27.3695841,10.1133859 C27.2791675,10.2946359 27.0079175,10.2946359 26.8270841,10.2946359 L26.8270841,10.2946359 Z" id="形状" stroke="#FFFFFF" stroke-width="0.3" fill="#FFFFFF" transform="translate(25.134716, 6.660954) rotate(-17.000000) translate(-25.134716, -6.660954) "></path>
                        <path d="M20.125,15 L7.875,15 C7.35,15 7,14.6 7,14 C7,13.4 7.35,13 7.875,13 L20.125,13 C20.65,13 21,13.4 21,14 C21,14.6 20.65,15 20.125,15 Z" id="路径" stroke="#FFFFFF" stroke-width="0.7" fill="#FFFFFF"></path>
                        <path d="M14,24 C13.4,24 13,23.6333333 13,23.0833333 L13,13.9166667 C13,13.3666667 13.4,13 14,13 C14.6,13 15,13.3666667 15,13.9166667 L15,23.0833333 C15,23.6333333 14.6,24 14,24 Z" id="路径" stroke="#FFFFFF" stroke-width="0.7" fill="#FFFFFF"></path>
                        <path d="M20.0714286,19 L8.92857143,19 C8.37142857,19 8,18.6320273 8,18.0800681 C8,17.528109 8.37142857,17.1601363 8.92857143,17.1601363 L20.0714286,17.1601363 C20.6285714,17.1601363 21,17.528109 21,18.0800681 C21,18.6320273 20.6285714,19 20.0714286,19 Z M13.5714286,13.4804089 C13.2928571,13.4804089 12.9214286,13.2964225 12.7357143,13.0204429 L9.95,8.42078365 C9.76428571,7.96081772 9.85714286,7.4088586 10.3214286,7.13287905 C10.7857143,6.85689949 11.3428571,7.04088586 11.6214286,7.4088586 L14.4071429,12.0085179 C14.6857143,12.4684838 14.5,13.0204429 14.1285714,13.2964225 C13.9428571,13.4804089 13.7571429,13.4804089 13.5714286,13.4804089 Z" id="形状" stroke="#FFFFFF" stroke-width="0.7" fill="#FFFFFF"></path>
                        <path d="M15.7804122,13 C15.6192949,13 15.4581775,13 15.3776188,12.9142437 C14.9748254,12.656975 14.8942667,12.1424375 15.1359428,11.7136562 L17.5527032,7.42584371 C17.7138206,6.99706245 18.1971727,6.9113062 18.5999661,7.0828187 C19.0027595,7.34008746 19.0833182,7.85462496 18.9222008,8.28340621 L16.5054404,12.5712187 C16.344323,12.8284875 16.0220883,13 15.7804122,13 Z" id="路径" stroke="#FFFFFF" stroke-width="0.7" fill="#FFFFFF"></path>
                    </g>
                </g>
            </g>
        </g>
    </g>
</svg>