<?xml version="1.0" encoding="UTF-8"?>
<svg width="54px" height="56px" viewBox="0 0 54 56" version="1.1" xmlns="http://www.w3.org/2000/svg" xmlns:xlink="http://www.w3.org/1999/xlink">
    <!-- Generator: Sketch 53.2 (72643) - https://sketchapp.com -->
    <title>扩租</title>
    <desc>Created with Sketch.</desc>
    <defs>
        <linearGradient x1="97.0156107%" y1="90.6131629%" x2="17.1981523%" y2="0%" id="linearGradient-15">
            <stop stop-color="#0BE3C2" offset="0%"></stop>
            <stop stop-color="#70FFF7" offset="100%"></stop>
        </linearGradient>
    </defs>
    <g id="Page-1" stroke="none" stroke-width="1" fill="none" fill-rule="evenodd">
        <g id="审核管理-待我审核" transform="translate(-1074.000000, -505.000000)">
            <g id="数据列表" transform="translate(249.000000, 372.000000)">
                <g id="扩租" transform="translate(825.000000, 133.000000)">
                    <path d="M48.4663689,0 L5.5298812,0 C2.4793202,0 0,2.5565645 0,5.70228844 L0,49.985266 C0,53.1309355 2.47926743,55.6875 5.5298812,55.6875 L48.4701716,55.6875 C51.5207326,55.6875 54,53.1309355 54,49.985266 L54,5.69836731 C53.996303,2.55264332 51.5168772,0 48.4663689,0 Z" id="形状" fill="url(#linearGradient-15)" fill-rule="nonzero"></path>
                    <g id="增加3" transform="translate(20.000000, 21.000000)" fill-rule="nonzero">
                        <rect id="矩形" fill="#000000" opacity="0" x="8" y="10" width="14" height="14"></rect>
                        <path d="M5.81239251,12.3123901 L10.6872444,12.3123901 L10.6872444,17.1875717 C10.6872444,17.7618666 10.9253404,18 11.5000191,18 C12.0743539,18 12.3124116,17.7619048 12.3124116,17.1875717 L12.3124116,12.3123901 L17.1876075,12.3123901 C17.7619423,12.3123901 18,12.0746388 18,11.5 C18,10.9252847 17.7619423,10.6875717 17.1876075,10.6875717 L12.3124116,10.6875717 L12.3124116,5.81239012 C12.3124116,5.23771306 12.0743539,5 11.5000191,5 C10.9253404,5 10.6872444,5.23775127 10.6872444,5.81239012 L10.6872444,10.6875717 L5.81239251,10.6875717 C5.23771376,10.6875717 5,10.9253229 5,11.5 C4.99996179,12.0746388 5.23771376,12.3123901 5.81239251,12.3123901 Z" id="路径" stroke="#FFFFFF" stroke-width="0.7" fill="#FFFFFF"></path>
                        <path d="M21.0833333,11.5 C21.0833333,16.7926091 16.792878,21.0833333 11.5001989,21.0833333 C6.20744016,21.0833333 1.91666667,16.7926091 1.91666667,11.5 C1.91666667,6.2073511 6.20744014,1.91666664 11.5001989,1.91666667 C16.7929178,1.9166269 21.0833333,6.2073511 21.0833333,11.5 Z M11.5,0 C5.14878204,0 0,5.14878204 0,11.5000406 C0,17.8512585 5.14878204,23 11.5,23 C17.851218,23 23,17.851218 23,11.5000406 C23,5.14878204 17.851218,0 11.5,0 Z" id="形状" fill="#FFFFFF"></path>
                    </g>
                    <g id="订单" transform="translate(10.000000, 11.000000)">
                        <rect id="矩形" fill="#000000" fill-rule="nonzero" opacity="0" x="0" y="0" width="34" height="34"></rect>
                        <rect id="矩形" fill="#FFFFFF" x="4.39069141" y="5.32681436" width="5" height="1" rx="0.5"></rect>
                        <rect id="矩形" fill="#FFFFFF" x="4.39069141" y="8.32681436" width="9" height="1" rx="0.5"></rect>
                        <path d="M9.71821898,15.9377052 C7.08112211,15.9377052 4.15385404,15.9377052 4.15385404,15.9377052 C3.55905946,15.9377052 3.0769441,15.4620538 3.0769441,14.8753423 L3.0769441,2.12746427 C3.0769441,1.54065082 3.55909363,1.06513543 4.15385404,1.06513543 L10.6001098,1.06513543 C10.5903042,2.33714249 10.615382,3.18975911 10.615382,3.18975911 C10.615382,4.36325004 11.579681,5.31441679 12.769236,5.31441679 C12.769236,5.31441679 13.669269,5.31441679 14.9230901,5.31441679 C14.9230901,5.31441679 14.9230901,7.84949034 14.9230901,9.3759124 C14.9230901,9.88827784 16,9.95507708 16,9.38536287 C16,7.85431756 16,5.31441679 16,5.31441679 L16,4.25208795 L11.6922919,0.00277260289 L11.6922919,0.0180021491 C11.6230034,0.0180021491 11.3361122,-0.00844558962 10.615382,0.00277260289 L4.15385404,0.00277260289 C2.96429905,0.00277260289 2,0.954007339 2,2.12746427 L2,14.8753083 C2,16.0487653 2.96429905,17 4.15385404,17 C4.15385404,17 9.42172709,16.999932 9.686718,17 C10.2052542,17.000204 10.3159177,15.9377052 9.71821898,15.9377052 Z M12,1 L15,4 L12.9999894,4 C12.447711,4 12,3.55224645 12,2.99997867 C12,2.99997867 12,2.1905214 12,1 Z" id="形状" fill="#FFFFFF" fill-rule="nonzero"></path>
                    </g>
                </g>
            </g>
        </g>
    </g>
</svg>