<?xml version="1.0" encoding="utf-8"?>
<!-- Generator: Adobe Illustrator 23.0.1, SVG Export Plug-In . SVG Version: 6.00 Build 0)  -->
<svg version="1.1" id="图层_1" xmlns="http://www.w3.org/2000/svg" xmlns:xlink="http://www.w3.org/1999/xlink" x="0px" y="0px"
	 viewBox="0 0 18 18" style="enable-background:new 0 0 18 18;" xml:space="preserve">
<style type="text/css">
	.st0{fill-opacity:0;}
	.st1{stroke:#656771;stroke-width:0.15;}
</style>
<title>财务管理</title>
<desc>Created with Sketch.</desc>
<g id="Page-1">
	<g id="账单管理-办公服务订单" transform="translate(-23.000000, -446.000000)">
		<g id="财务管理" transform="translate(24.000000, 447.000000)">
			<rect id="矩形" x="0" y="0.1" class="st0" width="16" height="16"/>
			<path id="形状" fill-rule="inherit" d="M14.4,4.6H1.6C0.7,4.6,0,5.3,0,6.2v8.3c0,0.9,0.7,1.6,1.6,1.6h12.8c0.9,0,1.6-0.7,1.6-1.6V6.2
				c0-0.4-0.2-0.8-0.5-1.1C15.3,4.8,14.9,4.6,14.4,4.6z M15,14.5c0,0.3-0.2,0.5-0.5,0.5H1.6c-0.3,0-0.5-0.2-0.5-0.5V6.2
				c0-0.3,0.2-0.5,0.5-0.5h12.8c0.3,0,0.5,0.2,0.5,0.5V14.5z"/>
			<path fill-rule="inherit" d="M10.2,10.3H8.6V9.7h1.2c0.2,0,0.4-0.1,0.5-0.3c0.1-0.2,0.1-0.4,0-0.5C10.2,8.7,10,8.6,9.8,8.6H9.3l0.8-0.8
				c0.2-0.2,0.2-0.6,0-0.8s-0.6-0.2-0.8,0L8,8.4L6.8,7.1C6.6,6.9,6.2,6.9,6,7.1S5.8,7.6,6,7.8l0.8,0.8H6.3c-0.2,0-0.4,0.1-0.5,0.3
				c-0.1,0.2-0.1,0.4,0,0.5c0.1,0.2,0.3,0.3,0.5,0.3h1.2v0.6H5.9c-0.2,0-0.4,0.1-0.5,0.3c-0.1,0.2-0.1,0.4,0,0.5
				c0.1,0.2,0.3,0.3,0.5,0.3h1.6v1.9c0,0.3,0.2,0.5,0.5,0.5s0.5-0.2,0.5-0.5v-1.9h1.6c0.3,0,0.5-0.2,0.5-0.5S10.5,10.3,10.2,10.3
				L10.2,10.3z M1.7,3.5h12.8C14.8,3.5,15,3.3,15,3s-0.2-0.5-0.5-0.5H1.7C1.4,2.4,1.1,2.7,1.1,3S1.4,3.5,1.7,3.5L1.7,3.5z M2.7,1.2
				h10.7c0.3,0,0.5-0.2,0.5-0.5s-0.2-0.5-0.5-0.5H2.7c-0.3,0-0.5,0.2-0.5,0.5S2.4,1.2,2.7,1.2z"/>
		</g>
	</g>
</g>
</svg>
