<?xml version="1.0" encoding="UTF-8"?>
<svg width="16px" height="17px" viewBox="0 0 16 17" version="1.1" xmlns="http://www.w3.org/2000/svg" xmlns:xlink="http://www.w3.org/1999/xlink">
    <!-- Generator: Sketch 53.2 (72643) - https://sketchapp.com -->
    <title>财务管理选中</title>
    <desc>Created with Sketch.</desc>
    <defs>
        <linearGradient x1="20.6298828%" y1="34.4021494%" x2="100%" y2="75.8240889%" id="linearGradient-1">
            <stop stop-color="#7CD4FF" offset="0%"></stop>
            <stop stop-color="#0078FF" offset="100%"></stop>
        </linearGradient>
    </defs>
    <g id="Page-1" stroke="none" stroke-width="1" fill="none" fill-rule="evenodd">
        <g id="导航样式2" transform="translate(-24.000000, -585.000000)" fill-rule="nonzero">
            <g id="纵导航">
                <g id="财务管理选中" transform="translate(24.000000, 586.000000)">
                    <rect id="矩形" fill="#000000" opacity="0" x="0" y="0" width="16" height="16"></rect>
                    <path d="M14.4,4.50133333 L1.6,4.50133333 C0.7163444,4.50133333 1.082166e-16,5.21767773 0,6.10133333 L0,14.4 C1.67790427e-15,15.2836556 0.7163444,16 1.6,16 L14.4,16 C15.2836556,16 16,15.2836556 16,14.4 L16,6.10133333 C16,5.67698694 15.8314291,5.27002068 15.5313708,4.96996248 C15.2313126,4.66990427 14.8243464,4.50133333 14.4,4.50133333 Z" id="形状" fill="url(#linearGradient-1)"></path>
                    <path d="M1.632,3.38133333 L14.432,3.38133333 C14.7265519,3.38133332 14.9653333,3.14255186 14.9653333,2.848 C14.9653333,2.55344814 14.7265519,2.31466668 14.432,2.31466667 L1.632,2.31466667 C1.33744814,2.31466667 1.09866667,2.55344814 1.09866667,2.848 C1.09866667,3.14255186 1.33744814,3.38133333 1.632,3.38133333 L1.632,3.38133333 Z M2.66666667,1.06666667 L13.3333333,1.06666667 C13.6278852,1.06666667 13.8666667,0.827885204 13.8666667,0.533333336 C13.8666667,0.238781468 13.6278852,1.80361001e-17 13.3333333,0 L2.66666667,0 C2.3721148,-1.80361001e-17 2.13333334,0.238781468 2.13333334,0.533333336 C2.13333334,0.827885204 2.3721148,1.06666667 2.66666667,1.06666667 Z" id="形状" stroke="#45ABFF" stroke-width="0.15" fill="#45ABFF"></path>
                    <path d="M10.1333333,10.2186667 L8.53333333,10.2186667 L8.53333333,9.6 L9.78133333,9.6 C9.97187498,9.60000001 10.1479427,9.49834725 10.2432136,9.33333334 C10.3384844,9.16831943 10.3384844,8.9650139 10.2432136,8.79999999 C10.1479427,8.63498608 9.97187498,8.53333332 9.78133333,8.53333333 L9.25866667,8.53333333 L10.0266667,7.744 C10.232853,7.53192266 10.2280774,7.19285297 10.016,6.98666666 C9.80392266,6.78048036 9.46485298,6.78525598 9.25866667,6.99733333 L8,8.288 L6.73066667,6.98666667 C6.52448037,6.77458934 6.1854107,6.76981371 5.97333336,6.97600001 C5.76125602,7.18218631 5.75648038,7.52125598 5.96266667,7.73333333 L6.74133333,8.53333333 L6.21866667,8.53333333 C6.02812502,8.53333332 5.85205726,8.63498608 5.75678644,8.79999999 C5.66151561,8.9650139 5.66151561,9.16831943 5.75678644,9.33333334 C5.85205726,9.49834725 6.02812502,9.60000001 6.21866667,9.6 L7.46666667,9.6 L7.46666667,10.2293333 L5.86666667,10.2293333 C5.67612502,10.2293333 5.50005726,10.3309861 5.40478643,10.496 C5.3095156,10.6610139 5.3095156,10.8643194 5.40478643,11.0293333 C5.50005726,11.1943473 5.67612502,11.296 5.86666667,11.296 L7.46666667,11.296 L7.46666667,13.1626667 C7.46666668,13.4572185 7.70544815,13.696 8,13.696 C8.29455185,13.696 8.53333332,13.4572185 8.53333333,13.1626667 L8.53333333,11.2853333 L10.1333333,11.2853333 C10.4278852,11.2853333 10.6666667,11.0465519 10.6666667,10.752 C10.6666667,10.4574481 10.4278852,10.2186667 10.1333333,10.2186667 L10.1333333,10.2186667 Z" id="形状-path" stroke="#FFFFFF" stroke-width="0.15" fill="#FFFFFF"></path>
                </g>
            </g>
        </g>
    </g>
</svg>