<?xml version="1.0" encoding="utf-8"?>
<!-- Generator: Adobe Illustrator 23.0.1, SVG Export Plug-In . SVG Version: 6.00 Build 0)  -->
<svg version="1.1" id="图层_1" xmlns="http://www.w3.org/2000/svg" xmlns:xlink="http://www.w3.org/1999/xlink" x="0px" y="0px"
	 viewBox="0 0 16 16" style="enable-background:new 0 0 16 16;" xml:space="preserve">
<style type="text/css">
	.st0{fill:#656771;fill-opacity:0;}
	.st1{fill:#656771;}
</style>
<title>商品管理</title>
<desc>Created with Sketch.</desc>
<g id="Page-1">
	<g id="账单管理-办公服务订单" transform="translate(-24.000000, -364.000000)">
		<g id="商品管理" transform="translate(23.000000, 364.000000)">
			<rect id="矩形" x="1" class="st0" width="16" height="16"/>
			<path id="形状" fill-rule="inherit" d="M3.6,15.8c-1,0-1.8-0.9-1.8-2.2L1.8,1c0-0.5,0.5-1,1.1-1l12.2,0c0.6,0,1.1,0.4,1.1,1
				c0,0.4,0,12.6,0,12.6c0,1.4-0.8,2.2-1.8,2.2L3.6,15.8z M3,13.9c0,0.4,0.3,0.7,0.6,0.7l10.7,0c0.4,0,0.6-0.3,0.6-0.7v-1.4l-12,0
				V13.9z M15,11.3V1.2l-12,0v10.2L15,11.3L15,11.3z M9,7.9C6.3,7.9,4.7,5.6,4.4,3c0-0.2,0-0.3,0.2-0.5C4.7,2.4,4.8,2.3,5,2.3
				c0.3,0,0.6,0.2,0.6,0.5c0.2,2,1.3,3.9,3.3,3.9c2.1,0,3.1-1.8,3.3-3.9c0-0.3,0.3-0.5,0.6-0.5c0.2,0,0.3,0.1,0.5,0.2
				c0.1,0.1,0.2,0.3,0.2,0.5C13.2,5.6,11.6,7.9,9,7.9z"/>
		</g>
	</g>
</g>
</svg>
