<?xml version="1.0" encoding="UTF-8"?>
<svg width="16px" height="16px" viewBox="0 0 16 16" version="1.1" xmlns="http://www.w3.org/2000/svg" xmlns:xlink="http://www.w3.org/1999/xlink">
    <!-- Generator: Sketch 53.2 (72643) - https://sketchapp.com -->
    <title>商品管理选中</title>
    <desc>Created with Sketch.</desc>
    <defs>
        <linearGradient x1="50%" y1="0%" x2="50%" y2="100%" id="linearGradient-1">
            <stop stop-color="#03B1FF" offset="0%"></stop>
            <stop stop-color="#0179FF" offset="100%"></stop>
        </linearGradient>
    </defs>
    <g id="Page-1" stroke="none" stroke-width="1" fill="none" fill-rule="evenodd">
        <g id="导航样式2" transform="translate(-24.000000, -292.000000)" fill-rule="nonzero">
            <g id="纵导航">
                <g id="商品管理选中" transform="translate(23.000000, 292.000000)">
                    <rect id="矩形" fill="#000000" opacity="0" x="0" y="0" width="15.9843902" height="15.9843902"></rect>
                    <path d="M2.80171879,15.8049892 C1.80827717,15.8049892 1,14.9510087 1,13.5746484 L1.00023201,0.995111992 C1.00023201,0.45015129 1.47922825,0 2.06798996,0 L15.7028339,0 C16.2915646,0 16.7705609,0.377489873 16.7705609,0.995111992 C16.7705609,1.39394558 16.7705609,13.5746484 16.7705609,13.5746484 C16.7705609,14.9510087 15.9623611,15.8049892 14.9690277,15.8049892 L2.80171879,15.8049892 Z M2.16620197,13.9013774 C2.16620197,14.3079906 2.45124883,14.6388182 2.80171879,14.6388182 L14.9690432,14.6388182 C15.3193585,14.6388182 15.6044053,14.3079906 15.6044053,13.9013774 L15.6044053,12.5461289 L2.16620197,12.5461289 L2.16620197,13.9013774 Z" id="形状" fill="url(#linearGradient-1)"></path>
                    <path d="M8.90303594,7.90427325 C6.22942645,7.90427325 4.64830578,5.6295128 4.35841792,2.97381346 C4.34013657,2.80597145 4.3950425,2.63669104 4.50878284,2.50951035 C4.62447196,2.38082941 4.78976201,2.3068224 4.96249143,2.3068224 C5.26980997,2.3068224 5.52635214,2.53606626 5.5595277,2.84002858 C5.78154872,4.88276119 6.84649179,6.69530651 8.90302047,6.69530651 C10.9602142,6.69530651 12.0073554,4.88276119 12.2294538,2.84002858 C12.2626293,2.53608172 12.5191405,2.3068224 12.8265364,2.3068224 C12.9992194,2.3068224 13.1644012,2.38082941 13.2798583,2.50951035 C13.3939235,2.63667557 13.4487521,2.80600237 13.4305017,2.97381346 C13.1401343,5.6295128 11.5767073,7.90427325 8.90303594,7.90427325 Z" id="形状-path" fill="#FFFFFF"></path>
                </g>
            </g>
        </g>
    </g>
</svg>