<?xml version="1.0" encoding="UTF-8"?>
<svg width="251px" height="72px" viewBox="0 0 251 72" version="1.1" xmlns="http://www.w3.org/2000/svg" xmlns:xlink="http://www.w3.org/1999/xlink">
    <!-- Generator: Sketch 53.2 (72643) - https://sketchapp.com -->
    <title>logo</title>
    <desc>Created with Sketch.</desc>
    <g id="Page-1" stroke="none" stroke-width="1" fill="none" fill-rule="evenodd">
        <g id="登录2.0-密码" transform="translate(-76.000000, -37.000000)" fill="#FFFFFF">
            <g id="分组" transform="translate(76.000000, 36.000000)">
                <g id="logo" transform="translate(0.000000, 0.073000)">
                    <path d="M27.653,72.0845 C15.63,72.0845 5.275,64.7225 1.388,53.2255 C-2.005,43.1875 0.966,31.7425 8.731,24.5645 C11.19,22.2925 28.676,7.5885 28.676,7.5885 L28.596,19.2735 L24.288,22.9395 L24.288,16.8085 C24.288,16.8085 13.701,25.7065 11.714,27.5595 C5.025,33.7955 2.517,42.9955 5.349,51.9765 C8.226,61.1015 17.202,67.9475 27.613,67.9465 C40.193,67.9455 50.736,57.7595 50.736,44.2045 L50.736,10.0545 L17.21,38.6595 C16.17,39.6595 15.746,41.2035 16.035,42.5245 C16.356,43.9875 17.433,45.1595 18.741,45.5895 C20.156,46.0545 21.521,45.7995 22.634,44.9755 C23.626,44.2415 24.298,43.0375 24.298,41.8125 L24.295,36.7715 L28.536,33.1405 L28.536,41.7145 C28.536,44.2605 27.204,46.8725 25.133,48.4055 C22.943,50.0285 20.184,50.5035 17.479,49.6365 C14.828,48.7875 12.629,46.4585 11.941,43.6735 C11.257,40.9075 11.966,37.6005 14.634,35.2715 L54.926,0.9275 L54.925,44.4205 C54.925,60.3265 42.257,72.0845 27.653,72.0845" id="Fill-1"></path>
                    <path d="M67.1076,30.6948 L71.9826,30.6948 L71.9826,32.9268 C72.8156,32.0098 73.7426,31.3258 74.7616,30.8728 C75.7796,30.4218 76.8906,30.1948 78.0936,30.1948 C79.3086,30.1948 80.4046,30.4918 81.3816,31.0878 C82.3586,31.6828 83.1456,32.5518 83.7406,33.6948 C84.5146,32.5518 85.4646,31.6828 86.5906,31.0878 C87.7166,30.4918 88.9476,30.1948 90.2816,30.1948 C91.6636,30.1948 92.8786,30.5158 93.9266,31.1588 C94.9746,31.8018 95.7286,32.6408 96.1876,33.6768 C96.6456,34.7128 96.8756,36.3978 96.8756,38.7308 L96.8756,50.1238 L91.9646,50.1238 L91.9646,40.2658 C91.9646,38.0638 91.6906,36.5728 91.1436,35.7928 C90.5956,35.0128 89.7746,34.6228 88.6786,34.6228 C87.8456,34.6228 87.0986,34.8618 86.4376,35.3378 C85.7766,35.8138 85.2866,36.4708 84.9646,37.3108 C84.6436,38.1508 84.4826,39.4978 84.4826,41.3558 L84.4826,50.1238 L79.5716,50.1238 L79.5716,40.7128 C79.5716,38.9748 79.4436,37.7158 79.1866,36.9358 C78.9306,36.1558 78.5456,35.5758 78.0326,35.1948 C77.5196,34.8138 76.8986,34.6228 76.1706,34.6228 C75.3596,34.6228 74.6226,34.8638 73.9606,35.3468 C73.2976,35.8288 72.8026,36.5048 72.4746,37.3728 C72.1466,38.2428 71.9826,39.6118 71.9826,41.4808 L71.9826,50.1238 L67.1076,50.1238 L67.1076,30.6948 Z" id="Fill-3"></path>
                    <path d="M127.9259,34.6948 C126.4189,34.6948 125.1669,35.2278 124.1709,36.2928 C123.1739,37.3588 122.6759,38.7248 122.6759,40.3908 C122.6759,42.0698 123.1819,43.4508 124.1969,44.5338 C125.2119,45.6178 126.4599,46.1588 127.9439,46.1588 C129.4739,46.1588 130.7439,45.6268 131.7519,44.5608 C132.7599,43.4958 133.2649,42.0998 133.2649,40.3738 C133.2649,38.6828 132.7599,37.3138 131.7519,36.2658 C130.7439,35.2188 129.4679,34.6948 127.9259,34.6948 L127.9259,34.6948 Z M133.0509,23.1948 L137.9259,23.1948 L137.9259,50.1238 L133.0509,50.1238 L133.0509,48.0698 C132.0989,48.9748 131.1449,49.6268 130.1879,50.0258 C129.2309,50.4238 128.1929,50.6228 127.0749,50.6228 C124.5669,50.6228 122.3959,49.6508 120.5649,47.7038 C118.7339,45.7578 117.8189,43.3378 117.8189,40.4448 C117.8189,37.4448 118.7039,34.9868 120.4759,33.0698 C122.2479,31.1528 124.3999,30.1948 126.9329,30.1948 C128.0979,30.1948 129.1919,30.4148 130.2149,30.8558 C131.2369,31.2958 132.1819,31.9568 133.0509,32.8378 L133.0509,23.1948 Z" id="Fill-5"></path>
                    <path d="M141.7716,30.6948 L145.9506,30.6948 L145.9506,33.1408 C146.4026,32.1768 147.0046,31.4448 147.7546,30.9448 C148.5036,30.4448 149.3396,30.3128 150.2326,30.3128 C150.8636,30.3128 151.7856,30.4598 152.6346,30.9218 L150.1416,34.6388 C149.8146,34.5138 149.6406,34.4628 149.2716,34.4628 C148.5216,34.4628 147.8886,34.9268 147.3706,35.8558 C146.8526,36.7838 146.5936,38.6058 146.5936,41.3198 L146.6116,42.2658 L146.6116,50.1238 L141.7716,50.1238 L141.7716,30.6948 Z" id="Fill-7"></path>
                    <path d="M167.4948,37.9805 C167.1728,36.8975 166.5378,36.0165 165.5898,35.3375 C164.6418,34.6595 163.5418,34.3195 162.2888,34.3195 C160.9308,34.3195 159.7378,34.7015 158.7118,35.4625 C158.0678,35.9385 157.4718,36.7785 156.9238,37.9805 L167.4948,37.9805 Z M172.3698,41.8195 L156.7088,41.8195 C156.9348,43.2005 157.5388,44.2995 158.5218,45.1145 C159.5038,45.9305 160.7568,46.3375 162.2808,46.3375 C164.1018,46.3375 165.6668,45.7005 166.9768,44.4265 L171.0838,46.3555 C170.0598,47.8085 168.8338,48.8825 167.4058,49.5785 C165.9768,50.2755 164.2808,50.6235 162.3158,50.6235 C159.2678,50.6235 156.7868,49.6625 154.8698,47.7395 C152.9528,45.8165 151.9948,43.4095 151.9948,40.5165 C151.9948,37.5515 152.9508,35.0905 154.8608,33.1325 C156.7718,31.1735 159.1668,30.1945 162.0488,30.1945 C165.1078,30.1945 167.5958,31.1735 169.5128,33.1325 C171.4298,35.0905 172.3878,37.6775 172.3878,40.8915 L172.3698,41.8195 Z" id="Fill-9"></path>
                    <path d="M184.2506,34.6948 C182.7436,34.6948 181.4916,35.2278 180.4956,36.2928 C179.4986,37.3588 179.0006,38.7248 179.0006,40.3908 C179.0006,42.0698 179.5066,43.4508 180.5216,44.5338 C181.5366,45.6178 182.7846,46.1588 184.2686,46.1588 C185.7986,46.1588 187.0686,45.6268 188.0766,44.5608 C189.0846,43.4958 189.5896,42.0998 189.5896,40.3738 C189.5896,38.6828 189.0846,37.3138 188.0766,36.2658 C187.0686,35.2188 185.7926,34.6948 184.2506,34.6948 L184.2506,34.6948 Z M189.3756,30.6948 L194.2506,30.6948 L194.2506,50.1238 L189.3756,50.1238 L189.3756,48.0698 C188.4236,48.9748 187.4696,49.6268 186.5126,50.0258 C185.5556,50.4238 184.5176,50.6228 183.3996,50.6228 C180.8916,50.6228 178.7206,49.6508 176.8896,47.7038 C175.0586,45.7578 174.1436,43.3378 174.1436,40.4448 C174.1436,37.4448 175.0286,34.9868 176.8006,33.0698 C178.5726,31.1528 180.7246,30.1948 183.2576,30.1948 C184.4226,30.1948 185.5166,30.4148 186.5396,30.8558 C187.5616,31.2958 188.5066,31.9568 189.3756,32.8378 L189.3756,30.6948 Z" id="Fill-11"></path>
                    <path d="M197.8634,30.6948 L202.7384,30.6948 L202.7384,32.9268 C203.5714,32.0098 204.4984,31.3258 205.5174,30.8728 C206.5354,30.4218 207.6464,30.1948 208.8494,30.1948 C210.0644,30.1948 211.1604,30.4918 212.1374,31.0878 C213.1144,31.6828 213.9014,32.5518 214.4964,33.6948 C215.2714,32.5518 216.2214,31.6828 217.3464,31.0878 C218.4724,30.4918 219.7034,30.1948 221.0374,30.1948 C222.4194,30.1948 223.6344,30.5158 224.6824,31.1588 C225.7314,31.8018 226.4844,32.6408 226.9434,33.6768 C227.4024,34.7128 227.6314,36.3978 227.6314,38.7308 L227.6314,50.1238 L222.7204,50.1238 L222.7204,40.2658 C222.7204,38.0638 222.4464,36.5728 221.8994,35.7928 C221.3514,35.0128 220.5304,34.6228 219.4344,34.6228 C218.6014,34.6228 217.8544,34.8618 217.1934,35.3378 C216.5334,35.8138 216.0424,36.4708 215.7204,37.3108 C215.3994,38.1508 215.2384,39.4978 215.2384,41.3558 L215.2384,50.1238 L210.3274,50.1238 L210.3274,40.7128 C210.3274,38.9748 210.1994,37.7158 209.9434,36.9358 C209.6864,36.1558 209.3014,35.5758 208.7884,35.1948 C208.2754,34.8138 207.6544,34.6228 206.9264,34.6228 C206.1154,34.6228 205.3784,34.8638 204.7164,35.3468 C204.0534,35.8288 203.5584,36.5048 203.2304,37.3728 C202.9024,38.2428 202.7384,39.6118 202.7384,41.4808 L202.7384,50.1238 L197.8634,50.1238 L197.8634,30.6948 Z" id="Fill-13"></path>
                    <polygon id="Fill-15" points="238.2121 37.8784 238.2121 30.5964 243.0671 30.5964 243.0671 37.8784 250.3301 37.8784 250.3301 42.7334 243.0671 42.7334 243.0671 49.9964 238.2121 49.9964 238.2121 42.7334 230.9501 42.7334 230.9501 37.8784"></polygon>
                    <polygon id="Fill-17" points="105.8903 38.8447 102.5153 30.6947 97.5343 30.6947 103.2923 44.7117"></polygon>
                    <polygon id="Fill-19" points="113.1315 30.6948 107.5625 42.8848 104.9195 48.6738 101.3685 56.3468 106.4035 56.3468 118.1275 30.6948"></polygon>
                </g>
            </g>
        </g>
    </g>
</svg>