<?xml version="1.0" encoding="UTF-8"?>
<svg width="54px" height="65px" viewBox="0 0 54 65" version="1.1" xmlns="http://www.w3.org/2000/svg" xmlns:xlink="http://www.w3.org/1999/xlink">
    <!-- Generator: Sketch 53.2 (72643) - https://sketchapp.com -->
    <title>logo</title>
    <desc>Created with Sketch.</desc>
    <defs>
        <filter x="-1.2%" y="-12.4%" width="102.4%" height="124.8%" filterUnits="objectBoundingBox" id="filter-1">
            <feOffset dx="0" dy="2" in="SourceAlpha" result="shadowOffsetOuter1"></feOffset>
            <feGaussianBlur stdDeviation="3" in="shadowOffsetOuter1" result="shadowBlurOuter1"></feGaussianBlur>
            <feColorMatrix values="0 0 0 0 0   0 0 0 0 0   0 0 0 0 0  0 0 0 0.5 0" type="matrix" in="shadowBlurOuter1" result="shadowMatrixOuter1"></feColorMatrix>
            <feMerge>
                <feMergeNode in="shadowMatrixOuter1"></feMergeNode>
                <feMergeNode in="SourceGraphic"></feMergeNode>
            </feMerge>
        </filter>
        <polygon id="path-2" points="0 -2.84217094e-14 42 -2.84217094e-14 42 54 0 54"></polygon>
    </defs>
    <g id="Page-1" stroke="none" stroke-width="1" fill="none" fill-rule="evenodd">
        <g id="场地管理-楼盘列表导航" transform="translate(-85.000000, -27.000000)">
            <g id="横导航-" filter="url(#filter-1)" transform="translate(53.000000, 0.000000)">
                <g id="logo" transform="translate(0.000000, 30.000000)">
                    <g transform="translate(38.000000, 0.000000)">
                        <mask id="mask-3" fill="white">
                            <use xlink:href="#path-2"></use>
                        </mask>
                        <g id="Clip-2"></g>
                        <path d="M21.1452278,54 C11.951059,54 4.03358552,48.4127554 1.06146722,39.6878027 C-1.53294903,32.0701202 0.738168525,23.3849974 6.67616213,17.938485 C8.55664568,16.2129668 21.9273877,5.05529467 21.9273877,5.05529467 L21.8658494,13.9223072 L18.5722161,16.7055295 L18.5722161,12.0516313 C18.5722161,12.0516313 10.4768169,18.8045632 8.9566442,20.2105574 C3.84228188,24.9432302 1.92434027,31.92452 4.0897726,38.7407371 C6.28998742,45.6649374 13.1532842,50.8596366 21.1149046,50.8591941 C30.7335981,50.8587515 38.7955526,43.1286603 38.7955526,32.8419345 L38.7955526,6.92685565 L13.1595272,28.6341308 C12.3639894,29.3931109 12.0402448,30.5645514 12.2614257,31.5673789 C12.5062409,32.6773044 13.3303181,33.566838 14.3309833,33.8930003 C15.4123616,34.2461584 16.456282,34.0527623 17.3075609,33.4274334 C18.0660865,32.8698154 18.579351,31.9559413 18.579351,31.0265778 L18.5775673,27.2006983 L21.8203646,24.4457994 L21.8203646,30.9531139 C21.8203646,32.8848622 20.8014164,34.8666191 19.2188135,36.0300937 C17.5430115,37.2617215 15.4337662,37.6224031 13.3651005,36.9647678 C11.3383522,36.3204091 9.65675309,34.5524058 9.1305566,32.4392103 C8.60748161,30.3401765 9.15062341,27.8300101 11.1898578,26.0628918 L42,-2.84217094e-14 L41.9995541,33.0065646 C41.9995541,45.0767831 32.3121875,54 21.1452278,54" id="Fill-1" fill="#FFFFFF" mask="url(#mask-3)"></path>
                    </g>
                </g>
            </g>
        </g>
    </g>
</svg>