<?xml version="1.0" encoding="UTF-8"?>
<svg width="19px" height="19px" viewBox="0 0 19 19" version="1.1" xmlns="http://www.w3.org/2000/svg" xmlns:xlink="http://www.w3.org/1999/xlink">
    <!-- Generator: Sketch 53.2 (72643) - https://sketchapp.com -->
    <title>正确</title>
    <desc>Created with Sketch.</desc>
    <g id="Page-1" stroke="none" stroke-width="1" fill="none" fill-rule="evenodd">
        <g id="订单管理-新建2" transform="translate(-668.000000, -721.000000)" fill-rule="nonzero">
            <g id="正确" transform="translate(668.000000, 721.000000)">
                <path d="M9.5,0.189981445 C4.35806934,0.189981445 0.19,4.35816211 0.19,9.49998145 C0.19,14.6418193 4.35806934,18.8099814 9.5,18.8099814 C14.6417266,18.8099814 18.81,14.6418193 18.81,9.49998145 C18.81,4.35816211 14.6417266,0.189981445 9.5,0.189981445 Z" id="路径" fill="#FFFFFF"></path>
                <path d="M15.3011602,7.2148418 L8.78618262,13.4970693 C8.70218735,13.5811684 8.60446234,13.6503238 8.49721191,13.7015605 C8.08808105,13.9938711 7.51607715,13.9565947 7.14876855,13.5892305 L4.35101855,10.7914248 C3.94190625,10.3823311 3.94190625,9.71922363 4.35101855,9.31029688 C4.7599082,8.90116602 5.42305273,8.90116602 5.83214648,9.31029688 L7.93266699,11.4107246 L13.8199951,5.73358398 C14.2290518,5.32458301 14.8922334,5.32458301 15.301123,5.73358398 C15.7102539,6.14262207 15.7102539,6.80580371 15.3011602,7.21482324 L15.3011602,7.2148418 Z" id="路径" fill="#36DCB6"></path>
            </g>
        </g>
    </g>
</svg>