<?xml version="1.0" encoding="UTF-8"?>
<svg width="19px" height="19px" viewBox="0 0 19 19" version="1.1" xmlns="http://www.w3.org/2000/svg" xmlns:xlink="http://www.w3.org/1999/xlink">
    <!-- Generator: Sketch 53.2 (72643) - https://sketchapp.com -->
    <title>错误</title>
    <desc>Created with Sketch.</desc>
    <g id="Page-1" stroke="none" stroke-width="1" fill="none" fill-rule="evenodd">
        <g id="订单管理-新建2" transform="translate(-690.000000, -721.000000)" fill-rule="nonzero">
            <g id="错误" transform="translate(690.000000, 721.000000)">
                <path d="M9.50000022,18.7436922 C4.39480964,18.7436922 0.256308223,14.6051908 0.256308223,9.50000022 C0.256308223,4.39480964 4.39480964,0.256308223 9.50000022,0.256308223 C14.605212,0.256308223 18.7436922,4.39480964 18.7436922,9.50000022 C18.7436922,14.6051908 14.6051697,18.7436922 9.50000022,18.7436922 L9.50000022,18.7436922 Z" id="路径" fill="#FFFFFF"></path>
                <path d="M13.7913725,5.17416595 L13.7912669,5.17416595 C13.3586433,4.74156351 12.6572121,4.74156351 12.2245673,5.17416595 L9.47895538,7.91977791 L6.76814347,5.20883921 C6.33714685,4.7778426 5.6384413,4.7778426 5.20744468,5.20883921 L5.20733902,5.20883921 C4.77646919,5.63994147 4.77646919,6.33864704 5.20733902,6.76964366 L7.91815094,9.48045557 L5.17406029,12.2247153 C4.74133107,12.6573177 4.74133107,13.3585799 5.17406029,13.7911824 L5.17416595,13.7911824 C5.60664161,14.2238905 6.30813625,14.2238905 6.74086547,13.7911824 L9.48485049,11.047303 L12.2303568,13.792915 C12.6614379,14.2234256 13.3601646,14.2234256 13.7910345,13.792915 L13.7910345,13.7924501 C14.2220311,13.3614535 14.2220311,12.6631072 13.7910345,12.2321105 L11.0455493,9.48647743 L13.7913725,6.74073869 C14.2239961,6.30803059 14.2239961,5.60676839 13.7913725,5.17416595 L13.7913725,5.17416595 Z" id="路径" fill="#FF5555"></path>
            </g>
        </g>
    </g>
</svg>