<?xml version="1.0" encoding="UTF-8"?>
<svg width="54px" height="56px" viewBox="0 0 54 56" version="1.1" xmlns="http://www.w3.org/2000/svg" xmlns:xlink="http://www.w3.org/1999/xlink">
    <!-- Generator: Sketch 53.2 (72643) - https://sketchapp.com -->
    <title>我方清租</title>
    <desc>Created with Sketch.</desc>
    <defs>
        <linearGradient x1="22.3829201%" y1="19.7998047%" x2="97.0156107%" y2="100%" id="linearGradient-13">
            <stop stop-color="#7CD4FF" offset="0%"></stop>
            <stop stop-color="#0078FF" offset="100%"></stop>
        </linearGradient>
    </defs>
    <g id="Page-1" stroke="none" stroke-width="1" fill="none" fill-rule="evenodd">
        <g id="审核管理-待我审核" transform="translate(-764.000000, -505.000000)" fill-rule="nonzero">
            <g id="数据列表" transform="translate(249.000000, 372.000000)">
                <g id="我方清租" transform="translate(515.000000, 133.000000)">
                    <path d="M48.4663689,0 L5.5298812,0 C2.4793202,0 0,2.5565645 0,5.70228844 L0,49.985266 C0,53.1309355 2.47926743,55.6875 5.5298812,55.6875 L48.4701716,55.6875 C51.5207326,55.6875 54,53.1309355 54,49.985266 L54,5.69836731 C53.996303,2.55264332 51.5168772,0 48.4663689,0 Z" id="形状" fill="url(#linearGradient-13)"></path>
                    <g id="订单" transform="translate(12.000000, 11.000000)">
                        <rect id="矩形" fill="#000000" opacity="0" x="0" y="0" width="17" height="17"></rect>
                        <path d="M8.71821898,15.9377052 C6.08112211,15.9377052 3.15385404,15.9377052 3.15385404,15.9377052 C2.55905946,15.9377052 2.0769441,15.4620538 2.0769441,14.8753423 L2.0769441,2.12746427 C2.0769441,1.54065082 2.55909363,1.06513543 3.15385404,1.06513543 L9.60010982,1.06513543 C9.5903042,2.33714249 9.61538199,3.18975911 9.61538199,3.18975911 C9.61538199,4.36325004 10.579681,5.31441679 11.769236,5.31441679 C11.769236,5.31441679 12.669269,5.31441679 13.9230901,5.31441679 C13.9230901,5.31441679 13.9230901,7.84949034 13.9230901,9.3759124 C13.9230901,9.88827784 15,9.95507708 15,9.38536287 C15,7.85431756 15,5.31441679 15,5.31441679 L15,4.25208795 L10.6922919,0.00277260289 L10.6922919,0.0180021491 C10.6230034,0.0180021491 10.3361122,-0.00844558962 9.61538199,0.00277260289 L3.15385404,0.00277260289 C1.96429905,0.00277260289 1,0.954007339 1,2.12746427 L1,14.8753083 C1,16.0487653 1.96429905,17 3.15385404,17 C3.15385404,17 8.42172709,16.999932 8.686718,17 C9.20525423,17.000204 9.31591766,15.9377052 8.71821898,15.9377052 Z M10.6922919,1.06513543 L13.9230559,4.25205396 L11.7692019,4.25205396 C11.1744414,4.25205396 10.6922919,3.77640259 10.6922919,3.18972512 C10.6922919,3.18972512 10.6922919,2.32983367 10.6922919,1.06513543 Z M3.88340046,4.9518732 L7.49005305,4.9518732 C7.77277729,4.9518732 8.00197057,5.18106648 8.00197057,5.46379072 L8.00197057,5.46379072 C8.00197057,5.74651496 7.77277729,5.97570824 7.49005305,5.97570824 L3.88340046,5.97570824 C3.60067622,5.97570824 3.37148294,5.74651496 3.37148294,5.46379072 L3.37148294,5.46379072 C3.37148294,5.18106648 3.60067622,4.9518732 3.88340046,4.9518732 Z M3.88340046,7.5114608 L11.6060421,7.5114608 C11.8887663,7.5114608 12.1179596,7.74065408 12.1179596,8.02337832 L12.1179596,8.02337832 C12.1179596,8.30610256 11.8887663,8.53529584 11.6060421,8.53529584 L3.88340046,8.53529584 C3.60067622,8.53529584 3.37148294,8.30610256 3.37148294,8.02337832 L3.37148294,8.02337832 C3.37148294,7.74065408 3.60067622,7.5114608 3.88340046,7.5114608 Z" id="形状" fill="#FFFFFF"></path>
                    </g>
                    <g id="我的" transform="translate(20.000000, 21.000000)">
                        <rect id="矩形" fill="#000000" opacity="0" x="0" y="0" width="24" height="24"></rect>
                        <path d="M12.5,15.6 C8.236875,15.6 4.78125,12.108 4.78125,7.8 C4.78125,3.492 8.236875,0 12.5,0 C16.763125,0 20.21875,3.492 20.21875,7.8 C20.21875,12.108 16.763125,15.6 12.5,15.6 L12.5,15.6 Z M3,20.4 C3,18.4117749 4.59498558,16.8 6.5625,16.8 L18.4375,16.8 C20.4050144,16.8 22,18.4117749 22,20.4 C22,22.3882251 20.4050144,24 18.4375,24 L6.5625,24 C4.5948125,24 3,22.3842 3,20.4 Z" id="形状" fill="#FFFFFF"></path>
                    </g>
                </g>
            </g>
        </g>
    </g>
</svg>