<?xml version="1.0" encoding="UTF-8"?>
<svg width="10px" height="9px" viewBox="0 0 10 9" version="1.1" xmlns="http://www.w3.org/2000/svg" xmlns:xlink="http://www.w3.org/1999/xlink">
    <!-- Generator: Sketch 53.2 (72643) - https://sketchapp.com -->
    <title>收起</title>
    <desc>Created with Sketch.</desc>
    <g id="Page-1" stroke="none" stroke-width="1" fill="none" fill-rule="evenodd">
        <g id="合同管理+审核管理-弹窗" transform="translate(-1282.000000, -1345.000000)" fill-rule="nonzero">
            <g id="数据列表" transform="translate(249.000000, 123.000000)">
                <g id="buzhou1" transform="translate(39.000000, 317.000000)">
                    <g id="1" transform="translate(0.000000, 897.000000)">
                        <g id="收起" transform="translate(994.000000, 8.000000)">
                            <rect id="矩形" fill="#000000" opacity="0" x="0" y="0" width="10" height="10"></rect>
                            <path d="M0.419511719,5.47693359 C0.552548828,5.6099707 0.768066406,5.6099707 0.901103516,5.47693359 L4.99511719,1.3828125 L9.08913086,5.47693359 C9.22216797,5.6099707 9.43768555,5.6099707 9.57072266,5.47693359 C9.70375977,5.34389648 9.70375977,5.12837891 9.57072266,4.9953418 L5.23591797,0.660527344 C5.10288086,0.527490234 4.88736328,0.527490234 4.75432617,0.660527344 L0.419511719,4.99522461 C0.286474609,5.12837891 0.286474609,5.34389648 0.419511719,5.47693359 Z M0.419511719,8.88269531 C0.552548828,9.01573242 0.768066406,9.01573242 0.901103516,8.88269531 L4.99511719,4.78857422 L9.08913086,8.88269531 C9.22216797,9.01573242 9.43768555,9.01573242 9.57072266,8.88269531 C9.70375977,8.7496582 9.70375977,8.53414062 9.57072266,8.40110352 L5.23591797,4.06628906 C5.10288086,3.93325195 4.88736328,3.93325195 4.75432617,4.06628906 L0.419511719,8.40098633 C0.286474609,8.53414062 0.286474609,8.7496582 0.419511719,8.88269531 Z" id="形状" fill="#0179FF"></path>
                        </g>
                    </g>
                </g>
            </g>
        </g>
    </g>
</svg>