<?xml version="1.0" encoding="UTF-8"?>
<svg width="15px" height="12px" viewBox="0 0 15 12" version="1.1" xmlns="http://www.w3.org/2000/svg" xmlns:xlink="http://www.w3.org/1999/xlink">
    <!-- Generator: Sketch 53.2 (72643) - https://sketchapp.com -->
    <title>查看</title>
    <desc>Created with Sketch.</desc>
    <g id="Page-1" stroke="none" stroke-width="1" fill="none" fill-rule="evenodd">
        <g id="合同协议管理-合同&amp;协议列表" transform="translate(-1216.000000, -344.000000)" fill-rule="nonzero">
            <g id="数据列表" transform="translate(249.000000, 123.000000)">
                <g id="表格-Table---带复选框表格" transform="translate(17.000000, 141.000000)">
                    <g id="分组-2" transform="translate(0.000000, 51.000000)">
                        <g id="查看" transform="translate(949.000000, 27.000000)">
                            <rect id="矩形" fill="#000000" opacity="0" x="0" y="0" width="16" height="16"></rect>
                            <path d="M15.4476911,9.77462971 C13.7801159,12.0805276 11.3399361,13.5384615 8.61538462,13.5384615 C5.89107934,13.5384615 3.45089953,12.0805276 1.78307812,9.77462971 C1.04666627,8.75666997 1.04666627,7.24358187 1.78307812,6.22537029 C3.45089953,3.91947238 5.89107934,2.46153846 8.61538462,2.46153846 C11.3399361,2.46153846 13.7801159,3.91947238 15.4476911,6.22537029 C16.184103,7.24358187 16.184103,8.75666997 15.4476911,9.77462971 Z M14.7070937,7.06149754 C13.160161,4.77826573 10.9336908,3.46892068 8.59864239,3.46892068 C6.26359392,3.46892068 4.03712374,4.77826573 2.49019106,7.06149754 C2.12161583,7.60548394 2.12161583,8.39501975 2.49019106,8.93900615 C4.03712374,11.222238 6.26359392,12.5318349 8.59864239,12.5318349 C10.9336908,12.5318349 13.160161,11.222238 14.7070937,8.93875431 C15.0756689,8.39501975 15.0756689,7.60548394 14.7070937,7.06149754 Z M8.6203088,11.5229416 C6.71661893,11.5229416 5.17337939,9.94437361 5.17337939,7.99710378 C5.17337939,6.04983394 6.71661893,4.471266 8.6203088,4.471266 C10.5239987,4.471266 12.0672382,6.04983394 12.0672382,7.99710378 C12.0672382,9.94437361 10.5239987,11.5229416 8.6203088,11.5229416 Z M8.6203088,5.47864822 C7.26049515,5.47864822 6.15821637,6.60616077 6.15821637,7.99710378 C6.15821637,9.38804678 7.26049515,10.5155593 8.6203088,10.5155593 C9.98012245,10.5155593 11.0824012,9.38804678 11.0824012,7.99710378 C11.0824012,6.60616077 9.98012245,5.47864822 8.6203088,5.47864822 Z" id="形状" fill="#0179FF"></path>
                        </g>
                    </g>
                </g>
            </g>
        </g>
    </g>
</svg>