<?xml version="1.0" encoding="UTF-8"?>
<svg width="16px" height="16px" viewBox="0 0 16 16" version="1.1" xmlns="http://www.w3.org/2000/svg" xmlns:xlink="http://www.w3.org/1999/xlink">
    <!-- Generator: Sketch 53.2 (72643) - https://sketchapp.com -->
    <title>订单管理选中</title>
    <desc>Created with Sketch.</desc>
    <defs>
        <linearGradient x1="0%" y1="0%" x2="84.9647501%" y2="100%" id="linearGradient-1">
            <stop stop-color="#7CD4FF" offset="0%"></stop>
            <stop stop-color="#0078FF" offset="100%"></stop>
        </linearGradient>
    </defs>
    <g id="Page-1" stroke="none" stroke-width="1" fill="none" fill-rule="evenodd">
        <g id="导航样式2" transform="translate(-24.000000, -544.000000)" fill-rule="nonzero">
            <g id="纵导航">
                <g id="订单管理选中" transform="translate(24.000000, 544.000000)">
                    <rect id="矩形" fill="#000000" opacity="0" x="0" y="0" width="16" height="16"></rect>
                    <path d="M11.672,3.32 L4.352,3.32 C4.128,3.32 3.952,3.144 3.952,2.92 L3.952,0.72 C3.952,0.496 4.128,0.32 4.352,0.32 L11.672,0.32 C11.896,0.32 12.072,0.496 12.072,0.72 L12.072,2.92 C12.072,3.144 11.896,3.32 11.672,3.32 Z" id="形状" fill="#2997FF"></path>
                    <path d="M14.784,15.76 L1.24,15.76 C1.016,15.76 0.84,15.584 0.84,15.36 L0.84,1.816 C0.84,1.592 1.016,1.416 1.24,1.416 L3.7767334,1.416 C3.7767334,1.416 3.7767334,1.77279663 3.7767334,1.816 C3.7767334,1.85920337 3.7767334,2.3117981 3.7767334,2.3117981 L3.7767334,2.99304199 C3.85992432,3.32356771 4.04234823,3.48883057 4.32400513,3.48883057 C4.74649048,3.48883057 11.2334196,3.48883057 11.672,3.48883057 C11.964387,3.48883057 12.1577555,3.32356771 12.2521057,2.99304199 C12.2521057,2.99304199 12.2521057,2.13882446 12.2521057,2.13882446 C12.2521057,2.13882446 12.2521057,1.416 12.2521057,1.416 L14.784,1.416 C15.008,1.416 15.184,1.592 15.184,1.816 L15.184,15.36 C15.184,15.584 15.008,15.76 14.784,15.76 Z" id="路径" fill="url(#linearGradient-1)"></path>
                    <path d="M7.344,9.568 C7.368,9.904 7.408,10.232 7.456,10.56 C6.68,11.072 6.16,11.472 5.896,11.76 L5.424,11.104 C5.528,10.976 5.584,10.8 5.584,10.568 L5.584,8.512 L4.928,8.512 L4.928,7.68 L6.432,7.68 L6.432,10.208 C6.624,10.08 6.936,9.872 7.344,9.568 L7.344,9.568 Z M6.024,5.528 C6.288,5.88 6.56,6.288 6.856,6.768 L6.032,7.264 C5.736,6.712 5.48,6.28 5.272,5.96 L6.024,5.528 L6.024,5.528 Z M7.032,5.904 L11.264,5.904 L11.264,6.784 L10.112,6.784 L10.112,10.672 C10.112,10.936 10.072,11.144 9.984,11.296 C9.896,11.448 9.768,11.568 9.6,11.632 C9.432,11.696 8.84,11.736 7.816,11.736 C7.752,11.384 7.672,11.056 7.576,10.744 C7.896,10.768 8.192,10.776 8.464,10.776 C8.648,10.776 8.784,10.768 8.864,10.744 C8.944,10.728 9.016,10.68 9.064,10.6 C9.12,10.52 9.144,10.416 9.144,10.288 L9.144,6.784 L7.032,6.784 L7.032,5.904 Z" id="形状" stroke="#FFFFFF" stroke-width="0.2" fill="#FFFFFF"></path>
                </g>
            </g>
        </g>
    </g>
</svg>