<?xml version="1.0" encoding="utf-8"?>
<!-- Generator: Adobe Illustrator 23.0.1, SVG Export Plug-In . SVG Version: 6.00 Build 0)  -->
<svg version="1.1" id="图层_1" xmlns="http://www.w3.org/2000/svg" xmlns:xlink="http://www.w3.org/1999/xlink" x="0px" y="0px"
	 viewBox="0 0 16 16" style="enable-background:new 0 0 16 16;" xml:space="preserve">
<style type="text/css">
	.st0{fill-opacity:0;}
	.st1{stroke:#656771;stroke-width:0.35;}
	.st2{stroke:#656771;stroke-width:0.2;}
</style>
<title>订单管理</title>
<desc>Created with Sketch.</desc>
<g id="Page-1">
	<g id="账单管理-办公服务订单" transform="translate(-24.000000, -406.000000)">
		<g id="订单管理" transform="translate(24.000000, 406.000000)">
			<rect id="矩形" class="st0" width="16" height="16"/>
			<path id="形状" fill-rule="inherit" d="M11.7,3.3H4.4C4.1,3.3,4,3.1,4,2.9V0.7c0-0.2,0.2-0.4,0.4-0.4h7.3c0.2,0,0.4,0.2,0.4,0.4v2.2
				C12.1,3.1,11.9,3.3,11.7,3.3z M4.8,2.5h6.5V1.1H4.8V2.5L4.8,2.5z"/>
			<path id="路径" fill-rule="inherit" d="M14.8,15.8H1.2c-0.2,0-0.4-0.2-0.4-0.4V1.8c0-0.2,0.2-0.4,0.4-0.4h3.1c0.2,0,0.4,0.2,0.4,0.4
				S4.6,2.2,4.4,2.2H1.6V15h12.7V2.2h-2.7c-0.2,0-0.4-0.2-0.4-0.4s0.2-0.4,0.4-0.4h3.1c0.2,0,0.4,0.2,0.4,0.4v13.5
				C15.2,15.6,15,15.8,14.8,15.8z"/>
			<path class="st2" fill-rule="inherit" d="M7.3,9.6c0,0.3,0.1,0.7,0.1,1c-0.8,0.5-1.3,0.9-1.6,1.2l-0.5-0.7c0.1-0.1,0.2-0.3,0.2-0.5V8.5H4.9V7.7h1.5
				v2.5C6.6,10.1,6.9,9.9,7.3,9.6L7.3,9.6z M6,5.5c0.3,0.4,0.5,0.8,0.8,1.2L6,7.3C5.7,6.7,5.5,6.3,5.3,6L6,5.5L6,5.5z M7,5.9h4.2
				v0.9h-1.2v3.9c0,0.3,0,0.5-0.1,0.6c-0.1,0.2-0.2,0.3-0.4,0.3c-0.2,0.1-0.8,0.1-1.8,0.1c-0.1-0.4-0.1-0.7-0.2-1c0.3,0,0.6,0,0.9,0
				c0.2,0,0.3,0,0.4,0c0.1,0,0.2-0.1,0.2-0.1c0.1-0.1,0.1-0.2,0.1-0.3V6.8H7V5.9z"/>
		</g>
	</g>
</g>
</svg>
