<?xml version="1.0" encoding="UTF-8"?>
<svg width="16px" height="14px" viewBox="0 0 16 14" version="1.1" xmlns="http://www.w3.org/2000/svg" xmlns:xlink="http://www.w3.org/1999/xlink">
    <!-- Generator: Sketch 53.2 (72643) - https://sketchapp.com -->
    <title>组织管理选中</title>
    <desc>Created with Sketch.</desc>
    <defs>
        <linearGradient x1="20.6298828%" y1="24.7416147%" x2="95.0737847%" y2="89.7771049%" id="linearGradient-1">
            <stop stop-color="#7CD4FF" offset="0%"></stop>
            <stop stop-color="#0078FF" offset="100%"></stop>
        </linearGradient>
        <linearGradient x1="20.6298828%" y1="24.7416147%" x2="100%" y2="91.8182482%" id="linearGradient-2">
            <stop stop-color="#7CD4FF" offset="0%"></stop>
            <stop stop-color="#0078FF" offset="100%"></stop>
        </linearGradient>
    </defs>
    <g id="Page-1" stroke="none" stroke-width="1" fill="none" fill-rule="evenodd">
        <g id="导航样式2" transform="translate(-24.000000, -712.000000)" fill-rule="nonzero">
            <g id="纵导航">
                <g id="组织管理选中" transform="translate(24.000000, 711.000000)">
                    <rect id="矩形" fill="#000000" opacity="0" x="0" y="0" width="16" height="16"></rect>
                    <path d="M14.09375,14.59375 L12.03125,14.59375 C11.3757188,14.5929497 10.8444905,14.0187938 10.84375,13.3102904 L10.84375,11.0811237 C10.8444905,10.3726204 11.3757188,9.79846451 12.03125,9.79766414 L14.09375,9.79766414 C14.7492812,9.79846451 15.2805095,10.3726204 15.28125,11.0811237 L15.28125,13.3102904 C15.2805095,14.0187938 14.7492812,14.5929497 14.09375,14.59375 L14.09375,14.59375 Z M11.71875,8.10890152 L8.578125,8.10890152 L8.578125,8.91950758 L7.453125,8.91950758 L7.453125,8.10890152 L4.3125,8.10890152 L4.3125,8.95328283 L3.1875,8.95328283 L3.1875,6.89299242 L7.453125,6.89299242 L7.453125,6.42013889 L8.578125,6.42013889 L8.578125,6.89299242 L12.84375,6.89299242 L12.84375,8.95328283 L11.71875,8.95328283 L11.71875,8.10890152 Z M9.328125,6.01483586 L6.640625,6.01483586 C5.98509384,6.01403549 5.45386553,5.43987964 5.453125,4.73137626 L5.453125,2.5022096 C5.45386553,1.79370622 5.98509384,1.21955037 6.640625,1.21875 L9.328125,1.21875 C9.98365616,1.21955037 10.5148845,1.79370622 10.515625,2.5022096 L10.515625,4.73137626 C10.5148845,5.43987964 9.98365616,6.01403549 9.328125,6.01483586 L9.328125,6.01483586 Z M5.09375,11.0811237 L5.09375,13.3102904 C5.09300947,14.0187938 4.56178116,14.5929497 3.90625,14.59375 L1.84375,14.59375 C1.18821884,14.5929497 0.656990529,14.0187938 0.65625,13.3102904 L0.65625,11.0811237 C0.656990529,10.3726204 1.18821884,9.79846451 1.84375,9.79766414 L3.90625,9.79766414 C4.56178116,9.79846451 5.09300947,10.3726204 5.09375,11.0811237 L5.09375,11.0811237 Z M9.015625,9.79766414 C9.67115616,9.79846451 10.2023845,10.3726204 10.203125,11.0811237 L10.203125,13.3102904 C10.2023845,14.0187938 9.67115616,14.5929497 9.015625,14.59375 L6.953125,14.59375 C6.29759384,14.5929497 5.76636553,14.0187938 5.765625,13.3102904 L5.765625,11.0811237 C5.76636553,10.3726204 6.29759384,9.79846451 6.953125,9.79766414 L9.015625,9.79766414 Z" id="形状" stroke="url(#linearGradient-2)" stroke-width="0.1" fill="url(#linearGradient-1)"></path>
                </g>
            </g>
        </g>
    </g>
</svg>