<?xml version="1.0" encoding="UTF-8"?>
<svg width="16px" height="13px" viewBox="0 0 16 13" version="1.1" xmlns="http://www.w3.org/2000/svg" xmlns:xlink="http://www.w3.org/1999/xlink">
    <!-- Generator: Sketch 53.2 (72643) - https://sketchapp.com -->
    <title>组织管理</title>
    <desc>Created with Sketch.</desc>
    <g id="Page-1" stroke="none" stroke-width="1" fill="" fill-rule="evenodd">
        <g id="账单管理-办公服务订单" transform="translate(-26.000000, -575.000000)" fill-rule="nonzero">
            <g id="组织管理" transform="translate(26.000000, 574.000000)">
                <rect id="矩形" fill="#000000" opacity="0" x="0" y="0" width="16" height="16"></rect>
                <path d="M14.09375,13.59375 L12.03125,13.59375 C11.3757188,13.5930095 10.8444905,13.0617812 10.84375,12.40625 L10.84375,10.34375 C10.8444905,9.68821884 11.3757188,9.15699053 12.03125,9.15625 L14.09375,9.15625 C14.7492812,9.15699053 15.2805095,9.68821884 15.28125,10.34375 L15.28125,12.40625 C15.2805095,13.0617812 14.7492812,13.5930095 14.09375,13.59375 L14.09375,13.59375 Z M14.15625,10.34375 C14.15625,10.3092322 14.1282678,10.28125 14.09375,10.28125 L12.03125,10.28125 C11.9967322,10.28125 11.96875,10.3092322 11.96875,10.34375 L11.96875,12.40625 C11.96875,12.4407678 11.9967322,12.46875 12.03125,12.46875 L14.09375,12.46875 C14.1282678,12.46875 14.15625,12.4407678 14.15625,12.40625 L14.15625,10.34375 Z M11.71875,7.59375 L8.578125,7.59375 L8.578125,8.34375 L7.453125,8.34375 L7.453125,7.59375 L4.3125,7.59375 L4.3125,8.375 L3.1875,8.375 L3.1875,6.46875 L7.453125,6.46875 L7.453125,6.03125 L8.578125,6.03125 L8.578125,6.46875 L12.84375,6.46875 L12.84375,8.375 L11.71875,8.375 L11.71875,7.59375 Z M9.328125,5.65625 L6.640625,5.65625 C5.98509384,5.65550947 5.45386553,5.12428116 5.453125,4.46875 L5.453125,2.40625 C5.45386553,1.75071884 5.98509384,1.21949053 6.640625,1.21875 L9.328125,1.21875 C9.98365616,1.21949053 10.5148845,1.75071884 10.515625,2.40625 L10.515625,4.46875 C10.5148845,5.12428116 9.98365616,5.65550947 9.328125,5.65625 L9.328125,5.65625 Z M9.390625,2.40625 C9.390625,2.3717322 9.3626428,2.34375 9.328125,2.34375 L6.640625,2.34375 C6.6061072,2.34375 6.578125,2.3717322 6.578125,2.40625 L6.578125,4.46875 C6.578125,4.5032678 6.6061072,4.53125 6.640625,4.53125 L9.328125,4.53125 C9.3626428,4.53125 9.390625,4.5032678 9.390625,4.46875 L9.390625,2.40625 Z M5.09375,10.34375 L5.09375,12.40625 C5.09300947,13.0617812 4.56178116,13.5930095 3.90625,13.59375 L1.84375,13.59375 C1.18821884,13.5930095 0.656990529,13.0617812 0.65625,12.40625 L0.65625,10.34375 C0.656990529,9.68821884 1.18821884,9.15699053 1.84375,9.15625 L3.90625,9.15625 C4.56178116,9.15699053 5.09300947,9.68821884 5.09375,10.34375 L5.09375,10.34375 Z M1.78125,10.34375 L1.78125,12.40625 C1.78125,12.4407678 1.8092322,12.46875 1.84375,12.46875 L3.90625,12.46875 C3.9407678,12.46875 3.96875,12.4407678 3.96875,12.40625 L3.96875,10.34375 C3.96875,10.3092322 3.9407678,10.28125 3.90625,10.28125 L1.84375,10.28125 C1.8092322,10.28125 1.78125,10.3092322 1.78125,10.34375 Z M6.953125,9.15625 L9.015625,9.15625 C9.67115616,9.15699053 10.2023845,9.68821884 10.203125,10.34375 L10.203125,12.40625 C10.2023845,13.0617812 9.67115616,13.5930095 9.015625,13.59375 L6.953125,13.59375 C6.29759384,13.5930095 5.76636553,13.0617812 5.765625,12.40625 L5.765625,10.34375 C5.76636553,9.68821884 6.29759384,9.15699053 6.953125,9.15625 L6.953125,9.15625 Z M6.890625,12.40625 C6.890625,12.4407678 6.9186072,12.46875 6.953125,12.46875 L9.015625,12.46875 C9.0501428,12.46875 9.078125,12.4407678 9.078125,12.40625 L9.078125,10.34375 C9.078125,10.3092322 9.0501428,10.28125 9.015625,10.28125 L6.953125,10.28125 C6.9186072,10.28125 6.890625,10.3092322 6.890625,10.34375 L6.890625,12.40625 Z" id="形状" stroke="#656771" stroke-width="0.1" fill=""></path>
            </g>
        </g>
    </g>
</svg>