<?xml version="1.0" encoding="UTF-8"?>
<svg width="17px" height="17px" viewBox="0 0 17 17" version="1.1" xmlns="http://www.w3.org/2000/svg" xmlns:xlink="http://www.w3.org/1999/xlink">
    <!-- Generator: Sketch 53.2 (72643) - https://sketchapp.com -->
    <title>记录1</title>
    <desc>Created with Sketch.</desc>
    <g id="Page-1" stroke="none" stroke-width="1" fill="none" fill-rule="evenodd">
        <g id="合同管理-合同协议流程" transform="translate(-321.000000, -1648.000000)" fill-rule="nonzero">
            <g id="数据列表" transform="translate(249.000000, 123.000000)">
                <g id="buzhou1" transform="translate(39.000000, 317.000000)">
                    <g id="历史记录" transform="translate(0.000000, 1152.000000)">
                        <g id="记录1" transform="translate(32.000000, 55.000000)">
                            <rect id="矩形" fill="#000000" opacity="0" x="0" y="0" width="20" height="20"></rect>
                            <path d="M9.5,1 C4.80558302,1 1,4.80558302 1,9.5 C1,14.194417 4.80558302,18 9.5,18 C14.194417,18 18,14.194417 18,9.5 C18,4.80558302 14.194417,1 9.5,1 Z" id="形状" fill="#36DCB6"></path>
                            <path d="M8.46213965,12.3694949 C8.35579251,12.472849 8.213292,12.530593 8.06499582,12.5304252 C7.91955801,12.5305913 7.77958215,12.4750365 7.67384194,12.3751806 L5.47012626,10.2991747 C5.24079638,10.0831368 5.23003347,9.72208489 5.44607135,9.492755 C5.66210923,9.26344413 6.02316118,9.25268122 6.25249106,9.46870008 L8.05932912,11.1708375 L12.741557,6.63048604 C12.9677683,6.41117745 13.3289153,6.41671104 13.5482429,6.64290332 C13.7675705,6.86909561 13.7619989,7.23026166 13.5358257,7.44958926 L8.46213965,12.3694949 Z" id="路径" stroke="#FFFFFF" stroke-width="0.3" fill="#FFFFFF"></path>
                        </g>
                    </g>
                </g>
            </g>
        </g>
    </g>
</svg>