<?xml version="1.0" encoding="UTF-8"?>
<svg width="17px" height="17px" viewBox="0 0 17 17" version="1.1" xmlns="http://www.w3.org/2000/svg" xmlns:xlink="http://www.w3.org/1999/xlink">
    <!-- Generator: Sketch 53.2 (72643) - https://sketchapp.com -->
    <title>记录3</title>
    <desc>Created with Sketch.</desc>
    <g id="Page-1" stroke="none" stroke-width="1" fill="none" fill-rule="evenodd">
        <g id="合同管理-合同协议流程" transform="translate(-321.000000, -1876.000000)" fill-rule="nonzero">
            <g id="数据列表" transform="translate(249.000000, 123.000000)">
                <g id="buzhou1" transform="translate(39.000000, 317.000000)">
                    <g id="历史记录" transform="translate(0.000000, 1152.000000)">
                        <g id="记录3" transform="translate(32.000000, 283.000000)">
                            <rect id="矩形" fill="#000000" opacity="0" x="0" y="0" width="20" height="20"></rect>
                            <path d="M9.5,1 C4.80558302,1 1,4.80558302 1,9.5 C1,14.194417 4.80558302,18 9.5,18 C14.194417,18 18,14.194417 18,9.5 C18,4.80558302 14.194417,1 9.5,1 Z" id="形状" fill="#0179FF"></path>
                            <path d="M12.630938,11.7321354 L9.16666663,11.7321354 C8.688352,11.7321354 8.3005988,11.3443822 8.3005988,10.8660676 C8.3005988,10.8660676 8.3005988,10.8660676 8.3005988,10.8660478 C8.3005988,10.8660281 8.3005988,10.8660478 8.3005988,10.8660281 L8.3005988,5.66966065 C8.3005988,5.19134601 8.688352,4.80359281 9.16666663,4.80359281 C9.64498127,4.80359281 10.0327345,5.19134601 10.0327345,5.66966065 L10.0327345,9.99999979 L12.630938,9.99999979 C13.1092526,9.99999979 13.4970058,10.387753 13.4970058,10.8660676 C13.4970058,11.3443823 13.1092526,11.7321354 12.630938,11.7321354 Z" id="路径" fill="#FFFFFF"></path>
                        </g>
                    </g>
                </g>
            </g>
        </g>
    </g>
</svg>