<?xml version="1.0" encoding="UTF-8"?>
<svg width="56px" height="56px" viewBox="0 0 56 56" version="1.1" xmlns="http://www.w3.org/2000/svg" xmlns:xlink="http://www.w3.org/1999/xlink">
    <!-- Generator: Sketch 53.2 (72643) - https://sketchapp.com -->
    <title>变更</title>
    <desc>Created with Sketch.</desc>
    <defs>
        <linearGradient x1="50%" y1="0.245460304%" x2="50%" y2="100%" id="linearGradient-14">
            <stop stop-color="#E1B9FF" offset="0%"></stop>
            <stop stop-color="#8A6DFF" offset="100%"></stop>
        </linearGradient>
    </defs>
    <g id="Page-1" stroke="none" stroke-width="1" fill="none" fill-rule="evenodd">
        <g id="审核管理-待我审核" transform="translate(-918.000000, -505.000000)" fill-rule="nonzero">
            <g id="数据列表" transform="translate(249.000000, 372.000000)">
                <g id="变更" transform="translate(669.000000, 133.000000)">
                    <path d="M50.2614197,0 L5.73469162,0 C2.57114688,0 0,2.5709111 0,5.73428782 L0,50.2657669 C0,53.4290889 2.57109214,56 5.73469162,56 L50.2653631,56 C53.4289079,56 56,53.4290889 56,50.2657669 L56,5.73034468 C55.9961661,2.56696792 53.4249097,0 50.2614197,0 Z" id="形状" fill="url(#linearGradient-14)"></path>
                    <g id="订单" transform="translate(12.000000, 11.000000)">
                        <rect id="矩形" fill="#000000" opacity="0" x="0" y="0" width="34" height="34"></rect>
                        <path d="M9.71821898,15.9377052 C7.08112211,15.9377052 4.15385404,15.9377052 4.15385404,15.9377052 C3.55905946,15.9377052 3.0769441,15.4620538 3.0769441,14.8753423 L3.0769441,2.12746427 C3.0769441,1.54065082 3.55909363,1.06513543 4.15385404,1.06513543 L10.6001098,1.06513543 C10.5903042,2.33714249 10.615382,3.18975911 10.615382,3.18975911 C10.615382,4.36325004 11.579681,5.31441679 12.769236,5.31441679 C12.769236,5.31441679 13.669269,5.31441679 14.9230901,5.31441679 C14.9230901,5.31441679 14.9230901,7.84949034 14.9230901,9.3759124 C14.9230901,9.88827784 16,9.95507708 16,9.38536287 C16,7.85431756 16,5.31441679 16,5.31441679 L16,4.25208795 L11.6922919,0.00277260289 L11.6922919,0.0180021491 C11.6230034,0.0180021491 11.3361122,-0.00844558962 10.615382,0.00277260289 L4.15385404,0.00277260289 C2.96429905,0.00277260289 2,0.954007339 2,2.12746427 L2,14.8753083 C2,16.0487653 2.96429905,17 4.15385404,17 C4.15385404,17 9.42172709,16.999932 9.686718,17 C10.2052542,17.000204 10.3159177,15.9377052 9.71821898,15.9377052 Z M12,1 L15,4 L12.9999894,4 C12.447711,4 12,3.55224645 12,2.99997867 C12,2.99997867 12,2.1905214 12,1 Z M5.5,5 L9.5,5 C9.77614237,5 10,5.22385763 10,5.5 L10,5.5 C10,5.77614237 9.77614237,6 9.5,6 L5.5,6 C5.22385763,6 5,5.77614237 5,5.5 L5,5.5 C5,5.22385763 5.22385763,5 5.5,5 Z M5.5,8 L13.5,8 C13.7761424,8 14,8.22385763 14,8.5 L14,8.5 C14,8.77614237 13.7761424,9 13.5,9 L5.5,9 C5.22385763,9 5,8.77614237 5,8.5 L5,8.5 C5,8.22385763 5.22385763,8 5.5,8 Z" id="形状" fill="#FFFFFF"></path>
                        <path d="M32.65,17.0759719 L24.95,10.1124226 C24.775,9.93387005 24.25,9.75531751 24.075,9.93387005 C23.725,10.1124226 23.55,10.4695277 23.55,10.8266328 L23.55,12.6121582 L13.4,12.6121582 C12.875,12.6121582 12.525,12.9692633 12.525,13.504921 C12.525,14.0405786 12.875,14.3976837 13.4,14.3976837 L24.425,14.3976837 C24.95,14.3976837 25.3,14.0405786 25.3,13.504921 L25.3,12.7907108 L30.725,17.6116295 L25.3,22.4325482 L25.3,21.8968906 C25.3,21.361233 24.95,21.0041279 24.425,21.0041279 L14.45,21.0041279 L14.45,19.2186024 C14.45,18.8614973 14.275,18.5043922 13.925,18.3258397 C13.575,18.3258397 13.225,18.3258397 13.05,18.5043922 L5.35,25.4679415 C5.175,25.6464941 5,25.8250466 5,26.0035992 C5,26.1821517 5.175,26.5392568 5.35,26.7178093 L13.05,33.6813586 C13.225,33.8599112 13.4,33.8599112 13.575,33.8599112 L13.925,33.8599112 C14.275,33.6813586 14.45,33.3242535 14.45,32.9671484 L14.45,31.181623 L22.85,31.181623 C23.375,31.181623 23.725,30.8245179 23.725,30.2888603 C23.725,29.7532026 23.375,29.3960975 22.85,29.3960975 L13.575,29.3960975 C13.05,29.3960975 12.7,29.7532026 12.7,30.2888603 L12.7,31.0030704 L7.275,26.1821517 L12.7,21.361233 L12.7,21.8968906 C12.7,22.4325482 13.05,22.7896533 13.575,22.7896533 L23.55,22.7896533 L23.55,24.5751788 C23.55,24.9322839 23.725,25.289389 24.075,25.4679415 C24.425,25.6464941 24.775,25.6464941 24.95,25.289389 L32.65,18.3258397 C32.825,18.1472872 33,17.9687346 33,17.7901821 C33,17.6116295 32.825,17.2545244 32.65,17.0759719 Z" id="路径" stroke="#FFFFFF" stroke-width="0.6" fill="#FFFFFF"></path>
                    </g>
                </g>
            </g>
        </g>
    </g>
</svg>