<?xml version="1.0" encoding="utf-8"?>
<!-- Generator: Adobe Illustrator 23.0.1, SVG Export Plug-In . SVG Version: 6.00 Build 0)  -->
<svg version="1.1" id="图层_1" xmlns="http://www.w3.org/2000/svg" xmlns:xlink="http://www.w3.org/1999/xlink" x="0px" y="0px"
	 viewBox="0 0 16 16" style="enable-background:new 0 0 16 16;" xml:space="preserve">
<style type="text/css">
	.st0{fill-opacity:0;}
	.st1{fill:#656771;stroke:#656771;stroke-width:0.3;}
</style>
<title>场地管理</title>
<desc>Created with Sketch.</desc>
<g id="Page-1">
	<g id="账单管理-办公服务订单" transform="translate(-24.000000, -112.000000)">
		<g id="场地管理" transform="translate(24.000000, 112.000000)">
			<rect id="矩形" class="st0" fill-rule="inherit" width="16" height="16"/>
			<path id="形状" fill-rule="inherit" d="M8.3,7.2c1,0,1.8-0.8,1.8-1.8S9.3,3.6,8.3,3.6S6.4,4.4,6.4,5.4S7.3,7.2,8.3,7.2L8.3,7.2z
				 M8.3,4.2c0.6,0,1.1,0.5,1.1,1.1S8.9,6.5,8.3,6.5S7.1,6,7.1,5.4S7.6,4.2,8.3,4.2z M15.4,12.8l-0.9-4.7c-0.1-0.7-0.8-1.3-1.5-1.3
				h-0.7c0.2-0.5,0.3-1.1,0.3-1.6c0-1.1-0.4-2.2-1.2-3C10.5,1.4,9.5,1,8.3,1c-1.1,0-2.2,0.4-3,1.2s-1.2,1.9-1.2,3
				c0,0.6,0.1,1.1,0.3,1.6H3.5C2.7,6.9,2.1,7.4,2,8.2L1,12.8c-0.1,0.6,0,1.3,0.4,1.7c0.4,0.5,1,0.8,1.6,0.8h10.2
				c0.6,0,1.2-0.3,1.6-0.8C15.3,14.1,15.5,13.5,15.4,12.8z M14.5,13c0.1,0.3,0,0.6-0.2,0.9c-0.3-0.1-0.8-0.3-1.4-0.7
				c-0.7-0.5-1.2-1.1-1.3-1.7l2.4,0c0.1,0,0.1,0,0.2,0L14.5,13z M5.6,10.8c-0.1-1-0.5-2-1.3-2.7C4.2,8,4,7.9,3.9,7.8h0.9
				c0,0,0.1,0,0.1,0c0.3,0.4,0.6,0.7,0.9,0.9L8,10.6c0.1,0.1,0.2,0.1,0.3,0.1s0.2,0,0.3-0.1l2.2-1.9c0.4-0.3,0.7-0.6,0.9-0.9h0.8
				c-0.1,0.1-0.2,0.2-0.3,0.3c-0.8,0.8-1.2,1.7-1.3,2.7L5.6,10.8z M14.1,10.8C14.1,10.8,14.1,10.8,14.1,10.8l-2.4,0
				c0.1-0.8,0.4-1.6,1.1-2.2C13,8.3,13.2,8.1,13.4,8c0.1,0.1,0.1,0.2,0.2,0.3L14.1,10.8L14.1,10.8z M8.3,1.9c1.9,0,3.4,1.5,3.4,3.4
				c0,1.1-0.5,2.1-1.4,2.8c0,0,0,0,0,0L8.3,9.7L6.4,8c0,0,0,0,0,0C5.5,7.4,4.9,6.3,4.9,5.2C4.9,3.4,6.5,1.9,8.3,1.9z M2.8,8.3
				C2.8,8.2,2.9,8.1,3,8c0.2,0.1,0.5,0.3,0.8,0.6c0.6,0.6,1,1.4,1.1,2.2l-2.5,0c0,0,0,0,0,0L2.8,8.3L2.8,8.3z M1.9,13l0.3-1.6
				c0,0,0.1,0,0.1,0l2.5,0c-0.1,0.6-0.6,1.2-1.3,1.7c-0.6,0.4-1.2,0.7-1.4,0.7C1.9,13.7,1.8,13.3,1.9,13z M3.1,14.5
				c-0.1,0-0.3,0-0.4-0.1c0.3-0.1,0.7-0.3,1.2-0.6c0.9-0.6,1.5-1.4,1.6-2.3l5.4,0c0.2,0.9,0.7,1.7,1.6,2.3c0.4,0.3,0.8,0.5,1.1,0.6
				c-0.1,0.1-0.3,0.1-0.4,0.1L3.1,14.5L3.1,14.5z"/>
		</g>
	</g>
</g>
</svg>
