<?xml version="1.0" encoding="UTF-8"?>
<svg width="16px" height="16px" viewBox="0 0 16 16" version="1.1" xmlns="http://www.w3.org/2000/svg" xmlns:xlink="http://www.w3.org/1999/xlink">
    <!-- Generator: Sketch 53.2 (72643) - https://sketchapp.com -->
    <title>场地管理选中</title>
    <desc>Created with Sketch.</desc>
    <defs>
        <linearGradient x1="20.6298828%" y1="19.9941594%" x2="76.5719943%" y2="80.9124334%" id="linearGradient-1">
            <stop stop-color="#7CD4FF" offset="0%"></stop>
            <stop stop-color="#0078FF" offset="100%"></stop>
        </linearGradient>
        <linearGradient x1="20.6298828%" y1="19.9941594%" x2="79.5152452%" y2="78.1409043%" id="linearGradient-2">
            <stop stop-color="#7CD4FF" offset="0%"></stop>
            <stop stop-color="#0078FF" offset="100%"></stop>
        </linearGradient>
    </defs>
    <g id="Page-1" stroke="none" stroke-width="1" fill="none" fill-rule="evenodd">
        <g id="导航样式2" transform="translate(-24.000000, -249.000000)" fill-rule="nonzero">
            <g id="纵导航">
                <g id="场地管理选中" transform="translate(24.000000, 249.000000)">
                    <rect id="矩形" fill="#000000" opacity="0" x="0" y="0" width="16" height="16"></rect>
                    <path d="M15.3603462,12.8363619 L14.4455194,8.1515702 C14.3029038,7.42440981 13.6628728,6.89730552 12.9237066,6.89730552 L12.2419346,6.89730552 C12.4593364,6.37889931 12.5723853,5.81700265 12.5723853,5.24988713 C12.5723853,4.11391648 12.1306248,3.04753056 11.3271077,2.24382697 C10.5235906,1.44012339 9.4574521,1 8.32348423,1 C7.18777715,1 6.12163865,1.44186301 5.31812154,2.24556659 C4.51460443,3.04927018 4.07284394,4.1156561 4.07284394,5.25162675 C4.07284394,5.81700265 4.18589288,6.38063893 4.4032947,6.89904513 L3.47629336,6.89904513 C2.73538797,6.89904513 2.09535703,7.42614943 1.95448065,8.15330982 L1.03965381,12.8381015 C0.917908794,13.4591452 1.07965574,14.0958454 1.4814143,14.5846781 C1.88317285,15.0735108 2.47798422,15.3535893 3.10931909,15.3535893 L13.2906809,15.3535893 C13.923755,15.3535893 14.5168271,15.0735108 14.9185857,14.5846781 C15.3203443,14.0941058 15.4820912,13.4574055 15.3603462,12.8363619 Z M5.56161157,10.7818728 C5.50073906,9.76419622 5.05550014,8.82828166 4.26937518,8.06806853 C4.15458702,7.95673297 4.03979886,7.85757473 3.93022835,7.76885421 L4.81722775,7.76885421 C4.84331597,7.76885421 4.86940419,7.76711459 4.89375319,7.76189573 C5.1581138,8.12199669 5.47812927,8.44034681 5.83988589,8.70128953 L8.03825305,10.6061714 C8.11999613,10.6774957 8.22087057,10.7122881 8.32348423,10.7122881 C8.42609789,10.7122881 8.52697233,10.6774957 8.60871541,10.6061714 L10.8070826,8.70128953 C11.1671,8.44208643 11.4853762,8.12547593 11.7479976,7.76885421 L12.5636892,7.76885421 C12.4541187,7.85757473 12.3393306,7.95847259 12.2245424,8.06806853 C11.4366782,8.83002128 10.9897001,9.76941508 10.932306,10.7888313 L5.56161157,10.7818728 Z M3.10931909,14.4820406 C2.97539957,14.4820406 2.84495848,14.4611652 2.72147425,14.4194144 C3.03975051,14.2837242 3.46759728,14.0714908 3.89544406,13.7757557 C4.81896697,13.1355762 5.3737764,12.3492688 5.52508806,11.4777201 L10.9688295,11.4846786 C11.1218804,12.3544876 11.6766898,13.1373158 12.5984735,13.7757557 C13.0071889,14.0593134 13.4159044,14.2645884 13.728963,14.4002786 C13.5898258,14.4524671 13.4419926,14.480301 13.2906809,14.480301 L3.10931909,14.480301 L3.10931909,14.4820406 Z" id="形状" stroke="url(#linearGradient-2)" stroke-width="0.3" fill="url(#linearGradient-1)"></path>
                    <path d="M8.2713078,7.23305182 C9.28526986,7.23305182 10.1096575,6.40847282 10.1096575,5.39427544 C10.1096575,4.38007806 9.28526986,3.55375944 8.2713078,3.55375944 C7.25734573,3.55375944 6.43295804,4.37833844 6.43295804,5.39253582 C6.43295804,6.4067332 7.25734573,7.23305182 8.2713078,7.23305182 L8.2713078,7.23305182 Z" id="形状-path" fill="#FFFFFF"></path>
                </g>
            </g>
        </g>
    </g>
</svg>