<?xml version="1.0" encoding="UTF-8"?>
<svg width="24px" height="24px" viewBox="0 0 24 24" version="1.1" xmlns="http://www.w3.org/2000/svg" xmlns:xlink="http://www.w3.org/1999/xlink">
    <!-- Generator: Sketch 53.2 (72643) - https://sketchapp.com -->
    <title>Shape Copy 2</title>
    <desc>Created with Sketch.</desc>
    <g id="Page-1" stroke="none" stroke-width="1" fill="none" fill-rule="evenodd">
        <g id="商品管理-押金品弹窗" transform="translate(-165.000000, -930.000000)" fill="#FFAA00">
            <g id="弹出框" transform="translate(125.000000, 890.000000)">
                <path d="M52,64 C45.371875,64 40,58.628125 40,52 C40,45.371875 45.371875,40 52,40 C58.628125,40 64,45.371875 64,52 C64,58.628125 58.628125,64 52,64 L52,64 Z M52.75,45.25 C52.75,44.8351562 52.4148438,44.5 52,44.5 L52,44.5 C51.5851562,44.5 51.25,44.8351562 51.25,45.25 L51.25,45.25 C51.25,45.6648438 51.5851562,46 52,46 L52,46 C52.4148438,46 52.75,45.6648438 52.75,45.25 L52.75,45.25 L52.75,45.25 Z M52.75,48.25 C52.75,47.8351562 52.4148438,47.5 52,47.5 L52,47.5 C51.5851562,47.5 51.25,47.8351562 51.25,48.25 L51.25,58.75 C51.25,59.1648438 51.5851562,59.5 52,59.5 L52,59.5 C52.4148438,59.5 52.75,59.1648438 52.75,58.75 L52.75,48.25 L52.75,48.25 Z" id="Shape-Copy-2" transform="translate(52.000000, 52.000000) scale(1, -1) translate(-52.000000, -52.000000) "></path>
            </g>
        </g>
    </g>
</svg>