<svg id="图层_1" data-name="图层 1" xmlns="http://www.w3.org/2000/svg" xmlns:xlink="http://www.w3.org/1999/xlink" viewBox="0 0 20 20"><defs><style>.cls-1{fill:url(#未命名的渐变_2);}.cls-2{fill-opacity:0;}.cls-3{fill:#fff;}</style><linearGradient id="未命名的渐变_2" y1="10.01" x2="20" y2="10.01" gradientUnits="userSpaceOnUse"><stop offset="0" stop-color="#61b7ff"/><stop offset="1" stop-color="#0179ff"/></linearGradient></defs><title>图标1</title><rect class="cls-1" y="0.01" width="20" height="20" rx="3"/><rect class="cls-2" x="3" y="3" width="14" height="14"/><path id="形状" class="cls-3" d="M4.46,14.61a.92.92,0,1,1,.9-.92.91.91,0,0,1-.9.92Zm0-3.68a.93.93,0,1,1,.9-.92.91.91,0,0,1-.9.92Zm0-3.69a.92.92,0,1,1,.9-.92.91.91,0,0,1-.9.92Zm12-1a.52.52,0,0,1-.53.53H7.6a.52.52,0,0,1-.53-.53h0a.53.53,0,0,1,.53-.53h8.3a.53.53,0,0,1,.53.53Zm0,3.71a.52.52,0,0,1-.53.53H7.6A.52.52,0,0,1,7.07,10h0a.53.53,0,0,1,.53-.53h8.3a.53.53,0,0,1,.53.53Zm0,3.72a.53.53,0,0,1-.53.53H7.6a.53.53,0,0,1-.53-.53h0a.52.52,0,0,1,.53-.53h8.3a.52.52,0,0,1,.53.53Z"/></svg>