<?xml version="1.0" encoding="UTF-8"?>
<svg width="20px" height="23px" viewBox="0 0 20 23" version="1.1" xmlns="http://www.w3.org/2000/svg" xmlns:xlink="http://www.w3.org/1999/xlink">
    <!-- Generator: Sketch 53.2 (72643) - https://sketchapp.com -->
    <title>账号</title>
    <desc>Created with Sketch.</desc>
    <defs>
        <linearGradient x1="50%" y1="0%" x2="50%" y2="100%" id="linearGradient-1">
            <stop stop-color="#FFFFFF" offset="0%"></stop>
            <stop stop-color="#FFFFFF" stop-opacity="0.297038899" offset="100%"></stop>
        </linearGradient>
        <linearGradient x1="50%" y1="0%" x2="50%" y2="100%" id="linearGradient-2">
            <stop stop-color="#FFFFFF" offset="0%"></stop>
            <stop stop-color="#FFFFFF" stop-opacity="0.204326923" offset="100%"></stop>
        </linearGradient>
    </defs>
    <g id="Page-1" stroke="none" stroke-width="1" fill="none" fill-rule="evenodd">
        <g id="登录2.0-密码" transform="translate(-163.000000, -477.000000)">
            <g id="分组" transform="translate(76.000000, 36.000000)">
                <g id="账号" transform="translate(87.000000, 441.073000)">
                    <path d="M4.216,6.05 C4.216,9.15 6.73,11.663 9.83,11.663 L9.83,11.663 C12.93,11.663 15.443,9.15 15.443,6.05 L15.443,6.05 C15.443,2.949 12.93,0.436 9.83,0.436 L9.83,0.436 C6.73,0.436 4.216,2.949 4.216,6.05" id="Fill-28" fill="url(#linearGradient-1)"></path>
                    <path d="M3.3,13.39 C1.659,13.39 0.33,14.721 0.33,16.36 L0.33,16.36 L0.33,19.058 C0.33,20.698 1.659,22.027 3.3,22.027 L3.3,22.027 L16.36,22.027 C18,22.027 19.33,20.698 19.33,19.058 L19.33,19.058 L19.33,16.36 C19.33,14.721 18,13.39 16.36,13.39 L16.36,13.39 L3.3,13.39 Z" id="Fill-30" fill="url(#linearGradient-2)"></path>
                </g>
            </g>
        </g>
    </g>
</svg>