<?xml version="1.0" encoding="UTF-8"?>
<svg width="14px" height="14px" viewBox="0 0 14 14" version="1.1" xmlns="http://www.w3.org/2000/svg" xmlns:xlink="http://www.w3.org/1999/xlink">
    <!-- Generator: Sketch 53.2 (72643) - https://sketchapp.com -->
    <title>打印</title>
    <desc>Created with Sketch.</desc>
    <g id="Page-1" stroke="none" stroke-width="1" fill="none" fill-rule="evenodd">
        <g id="合同协议管理-合同&amp;协议列表" transform="translate(-1280.000000, -343.000000)" fill-rule="nonzero">
            <g id="数据列表" transform="translate(249.000000, 123.000000)">
                <g id="表格-Table---带复选框表格" transform="translate(17.000000, 141.000000)">
                    <g id="分组-2" transform="translate(0.000000, 51.000000)">
                        <g id="打印" transform="translate(1013.000000, 27.000000)">
                            <rect id="矩形" fill="#000000" opacity="0" x="0" y="0" width="16" height="16"></rect>
                            <path d="M11.5,9.75 L11.5,8.875 L13.6,8.875 C13.8415,8.875 14.125,8.520625 14.125,8 L14.125,2.75 C14.125,2.229375 13.8415,1.875 13.6,1.875 L2.4,1.875 C2.1585,1.875 1.875,2.229375 1.875,2.75 L1.875,8 C1.875,8.520625 2.1585,8.875 2.4,8.875 L4.5,8.875 L4.5,9.75 L2.4,9.75 C1.6265,9.75 1,8.966875 1,8 L1,2.75 C1,1.783125 1.6265,1 2.4,1 L13.6,1 C14.3735,1 15,1.783125 15,2.75 L15,8 C15,8.966875 14.3735,9.75 13.6,9.75 L11.5,9.75 Z M11.5,9.75 L11.5,8.875 L13.6,8.875 C13.8415,8.875 14.125,8.520625 14.125,8 L14.125,2.75 C14.125,2.229375 13.8415,1.875 13.6,1.875 L2.4,1.875 C2.1585,1.875 1.875,2.229375 1.875,2.75 L1.875,8 C1.875,8.520625 2.1585,8.875 2.4,8.875 L4.5,8.875 L4.5,9.75 L2.4,9.75 C1.6265,9.75 1,8.966875 1,8 L1,2.75 C1,1.783125 1.6265,1 2.4,1 L13.6,1 C14.3735,1 15,1.783125 15,2.75 L15,8 C15,8.966875 14.3735,9.75 13.6,9.75 L11.5,9.75 Z" id="形状" fill="#36DCB6"></path>
                            <path d="M5.3309775,6.2749775 L5.3309775,12.8622862 C5.3309775,13.2902945 5.67794674,13.6372637 6.105955,13.6372637 L9.894045,13.6372637 C10.3220533,13.6372637 10.6690225,13.2902945 10.6690225,12.8622862 L10.6690225,6.2749775 L5.3309775,6.2749775 Z M4.556,5.5 L11.444,5.5 L11.444,12.8622862 C11.444,13.7183027 10.7500615,14.4122412 9.894045,14.4122412 L6.105955,14.4122412 C5.24993849,14.4122412 4.556,13.7183027 4.556,12.8622862 L4.556,5.5 Z" id="形状" fill="#36DCB6"></path>
                            <path d="M4.34952814,6 C4.15648908,6 4,5.77614237 4,5.5 C4,5.22385763 4.15648908,5 4.34952814,5 L11.6504719,5 C11.8435109,5 12,5.22385763 12,5.5 C12,5.77614237 11.8435109,6 11.6504719,6 L4.34952814,6 Z M6.32923617,9 C6.14740406,9 6,8.77614237 6,8.5 C6,8.22385763 6.14740406,8 6.32923617,8 L8.67076383,8 C8.85259594,8 9,8.22385763 9,8.5 C9,8.77614237 8.85259594,9 8.67076383,9 L6.32923617,9 Z M6.32923617,12 C6.14740406,12 6,11.7761424 6,11.5 C6,11.2238576 6.14740406,11 6.32923617,11 L8.67076383,11 C8.85259594,11 9,11.2238576 9,11.5 C9,11.7761424 8.85259594,12 8.67076383,12 L6.32923617,12 Z" id="形状" fill="#36DCB6"></path>
                        </g>
                    </g>
                </g>
            </g>
        </g>
    </g>
</svg>