<?xml version="1.0" encoding="UTF-8"?>
<svg width="13px" height="16px" viewBox="0 0 13 16" version="1.1" xmlns="http://www.w3.org/2000/svg" xmlns:xlink="http://www.w3.org/1999/xlink">
    <!-- Generator: Sketch 53.2 (72643) - https://sketchapp.com -->
    <title>撤销</title>
    <desc>Created with Sketch.</desc>
    <g id="Page-1" stroke="none" stroke-width="1" fill="none" fill-rule="evenodd">
        <g id="撤销" transform="translate(-1.000000, 0.000000)" fill-rule="nonzero">
            <g>
                <rect id="矩形" fill="#000000" opacity="0" x="0" y="0" width="16" height="16"></rect>
                <path d="M13.984,8.976 C13.984,9.79733333 13.8293333,10.5706667 13.52,11.296 C13.2106667,12.0213333 12.7866667,12.664 12.248,13.224 C11.7093333,13.784 11.0746667,14.2426667 10.344,14.6 C9.61333333,14.9573333 8.82666667,15.1733333 7.984,15.248 C7.93066667,15.2586667 7.88266667,15.2666667 7.84,15.272 C7.79733333,15.2773333 7.74933333,15.28 7.696,15.28 L4.928,15.28 C4.74666667,15.28 4.568,15.248 4.392,15.184 C4.216,15.12 4.05866667,15.032 3.92,14.92 C3.78133333,14.808 3.66666667,14.6773333 3.576,14.528 C3.48533333,14.3786667 3.44,14.224 3.44,14.064 C3.44,13.904 3.48266667,13.7493333 3.568,13.6 C3.65333333,13.4506667 3.76533333,13.3226667 3.904,13.216 C4.04266667,13.1093333 4.19733333,13.024 4.368,12.96 C4.53866667,12.896 4.71466667,12.864 4.896,12.864 L7.376,12.88 C7.94133333,12.88 8.47466667,12.776 8.976,12.568 C9.47733333,12.36 9.91466667,12.08 10.288,11.728 C10.6613333,11.376 10.9546667,10.9626667 11.168,10.488 C11.3813333,10.0133333 11.488,9.504 11.488,8.96 C11.488,8.448 11.392,7.968 11.2,7.52 C11.008,7.072 10.744,6.672 10.408,6.32 C10.072,5.968 9.68,5.68266667 9.232,5.464 C8.784,5.24533333 8.29866667,5.10933333 7.776,5.056 C7.75466667,5.056 7.74133333,5.05866667 7.736,5.064 C7.73066667,5.06933333 7.71733333,5.072 7.696,5.072 L5.152,5.072 L5.152,6.336 C5.152,6.51733333 5.08,6.65066667 4.936,6.736 C4.792,6.82133333 4.56,6.768 4.24,6.576 C4.15466667,6.52266667 4.01866667,6.42933333 3.832,6.296 C3.64533333,6.16266667 3.42666667,6.00533333 3.176,5.824 C2.92533333,5.64266667 2.66133333,5.45066667 2.384,5.248 L1.584,4.64 C1.424,4.512 1.28533333,4.39733333 1.168,4.296 C1.05066667,4.19466667 0.992,4.06933333 0.992,3.92 C0.992,3.792 1.05866667,3.65866667 1.192,3.52 C1.32533333,3.38133333 1.47733333,3.24266667 1.648,3.104 C1.84,2.944 2.06933333,2.75733333 2.336,2.544 C2.60266667,2.33066667 2.86666667,2.12266667 3.128,1.92 C3.38933333,1.71733333 3.624,1.53333333 3.832,1.368 C4.04,1.20266667 4.18666667,1.088 4.272,1.024 C4.528,0.842666667 4.736,0.805333333 4.896,0.912 C5.056,1.01866667 5.14133333,1.17866667 5.152,1.392 L5.152,2.672 L7.696,2.672 C7.74933333,2.672 7.80533333,2.67733333 7.864,2.688 C7.92266667,2.69866667 7.97866667,2.70933333 8.032,2.72 C8.864,2.80533333 9.64266667,3.024 10.368,3.376 C11.0933333,3.728 11.7253333,4.184 12.264,4.744 C12.8026667,5.304 13.224,5.94666667 13.528,6.672 C13.832,7.39733333 13.984,8.16533333 13.984,8.976 L13.984,8.976 Z" id="路径" fill="#36DCB6"></path>
            </g>
        </g>
    </g>
</svg>