<?xml version="1.0" encoding="UTF-8"?>
<svg width="15px" height="3px" viewBox="0 0 15 3" version="1.1" xmlns="http://www.w3.org/2000/svg" xmlns:xlink="http://www.w3.org/1999/xlink">
    <!-- Generator: Sketch 53.2 (72643) - https://sketchapp.com -->
    <title>更多</title>
    <desc>Created with Sketch.</desc>
    <g id="Page-1" stroke="none" stroke-width="1" fill="none" fill-rule="evenodd">
        <g id="账单管理-办公服务订单" transform="translate(-1292.000000, -388.000000)" fill-rule="nonzero">
            <g id="数据列表" transform="translate(249.000000, 123.000000)">
                <g id="表格-Table---带复选框表格" transform="translate(17.000000, 191.000000)">
                    <g id="分组-2" transform="translate(0.000000, 51.000000)">
                        <g id="更多" transform="translate(1026.000000, 18.000000)">
                            <rect id="矩形" fill="#000000" opacity="0" x="0" y="0" width="16" height="13"></rect>
                            <path d="M2.74094462e-16,6.50000002 C1.09637785e-15,7.32842713 0.645013447,8 1.44067786,8 C2.23634227,8 2.88135571,7.32842713 2.88135571,6.50000002 C2.88135572,5.96410164 2.60676408,5.46891111 2.16101679,5.20096191 C1.71526951,4.93301271 1.1660862,4.93301271 0.72033892,5.20096191 C0.274591635,5.46891111 -1.08465889e-08,5.96410164 2.74094462e-16,6.50000002 Z M6.05932214,6.50000002 C6.05932214,7.32842713 6.70433559,8 7.5,8 C8.29566441,8 8.94067786,7.32842713 8.94067786,6.50000002 C8.94067787,5.96410163 8.66608623,5.4689111 8.22033894,5.2009619 C7.77459165,4.9330127 7.22540835,4.9330127 6.77966106,5.2009619 C6.33391377,5.4689111 6.05932213,5.96410163 6.05932214,6.50000002 L6.05932214,6.50000002 Z M12.1186443,6.50000002 C12.1186443,7.32842713 12.7636577,8 13.5593221,8 C14.3549866,8 15,7.32842713 15,6.50000002 C15,5.67157291 14.3549866,5.00000004 13.5593221,5.00000004 C12.7636577,5.00000004 12.1186443,5.67157291 12.1186443,6.50000002 Z" id="形状" fill="#2C2D31"></path>
                        </g>
                    </g>
                </g>
            </g>
        </g>
    </g>
</svg>