<?xml version="1.0" encoding="UTF-8"?>
<svg width="13px" height="13px" viewBox="0 0 13 13" version="1.1" xmlns="http://www.w3.org/2000/svg" xmlns:xlink="http://www.w3.org/1999/xlink">
    <!-- Generator: Sketch 53.2 (72643) - https://sketchapp.com -->
    <title>红色提醒</title>
    <desc>Created with Sketch.</desc>
    <g id="Page-1" stroke="none" stroke-width="1" fill="none" fill-rule="evenodd">
        <g id="账单管理-办公服务订单" transform="translate(-1133.000000, -483.000000)" fill-rule="nonzero">
            <g id="数据列表" transform="translate(249.000000, 123.000000)">
                <g id="表格-Table---带复选框表格" transform="translate(17.000000, 191.000000)">
                    <g id="分组-2" transform="translate(0.000000, 150.000000)">
                        <g id="红色提醒" transform="translate(865.000000, 17.000000)">
                            <rect id="矩形" fill="#000000" opacity="0" x="0" y="0" width="16" height="16"></rect>
                            <path d="M8.21797001,2.208 C4.89873866,2.20845667 2.20834021,4.89959552 2.20879687,8.21882687 C2.20925354,11.5380582 4.9003924,14.2284567 8.21962374,14.228 C11.5388551,14.2275433 14.2292535,11.5364045 14.2287969,8.21717313 C14.2283402,4.89794179 11.5372014,2.20754333 8.21797001,2.208 Z M7.65764542,5.08598661 C7.79219348,4.91352613 8.00010042,4.81449537 8.21879688,4.81869751 C8.44707726,4.81869751 8.63302526,4.90668598 8.77994833,5.08183606 C8.92606075,5.25782921 8.99910074,5.47698162 8.99910074,5.7417739 C8.99910074,5.96924363 8.69445668,7.64190007 8.5923466,8.85801195 L7.85854189,8.85801195 C7.76971034,7.64190007 7.43849301,5.96922742 7.43849301,5.7417739 C7.43090126,5.50402344 7.50863834,5.27140454 7.65764542,5.08598661 L7.65764542,5.08598661 Z M8.77083657,11.3641188 C8.63315041,11.5254228 8.4317165,11.6183203 8.21963996,11.6183203 C8.00756341,11.6183203 7.80612951,11.5254228 7.66844334,11.3641188 C7.51509371,11.1981643 7.43232978,10.9790556 7.43766614,10.7531607 C7.43766614,10.5149093 7.51402982,10.3090516 7.66844334,10.1363821 C7.80450539,9.972371 8.00652159,9.87744786 8.21962374,9.87739413 C8.432145,9.87739413 8.61642305,9.96372886 8.77082036,10.1363821 C8.92521767,10.3090516 9.00159756,10.5149093 9.00159756,10.7531607 C9.00615382,10.978922 8.92349637,11.1977488 8.77082036,11.3641188 L8.77083657,11.3641188 Z" id="形状" fill="#FF5555"></path>
                        </g>
                    </g>
                </g>
            </g>
        </g>
    </g>
</svg>