<?xml version="1.0" encoding="UTF-8"?>
<svg width="13px" height="13px" viewBox="0 0 13 13" version="1.1" xmlns="http://www.w3.org/2000/svg" xmlns:xlink="http://www.w3.org/1999/xlink">
    <!-- Generator: Sketch 53.2 (72643) - https://sketchapp.com -->
    <title>黄色提醒</title>
    <desc>Created with Sketch.</desc>
    <g id="Page-1" stroke="none" stroke-width="1" fill="none" fill-rule="evenodd">
        <g id="账单管理-办公服务订单" transform="translate(-1132.000000, -383.000000)" fill-rule="nonzero">
            <g id="数据列表" transform="translate(249.000000, 123.000000)">
                <g id="表格-Table---带复选框表格" transform="translate(17.000000, 191.000000)">
                    <g id="分组-2" transform="translate(0.000000, 51.000000)">
                        <g id="黄色提醒" transform="translate(865.000000, 17.000000)">
                            <rect id="矩形" fill="#000000" opacity="0" x="0" y="0" width="16" height="16"></rect>
                            <path d="M7.23321788,1.72692514 C3.91292503,1.72692514 1.22129395,4.41855622 1.22129395,7.73884906 C1.22129395,11.0591419 3.91292503,13.750773 7.23321788,13.750773 C10.5535107,13.750773 13.2451418,11.0591419 13.2451418,7.73884906 C13.2451418,4.41855622 10.5535107,1.72692514 7.23321788,1.72692514 Z M11.4035584,8.66355011 L6.92549052,8.66355011 C6.88561355,8.672552 6.84418564,8.67744469 6.80159052,8.67744469 C6.49172061,8.67744469 6.24051492,8.426239 6.24051492,8.11636909 L6.24051494,4.96052477 C6.24051494,4.65065486 6.49172063,4.39944917 6.80159053,4.39944917 C7.11146044,4.39944917 7.36266611,4.65063886 7.36266611,4.96052477 L7.36266611,7.54141492 L11.4035584,7.54141492 C11.7134283,7.54141492 11.964634,7.79262061 11.964634,8.10249052 C11.964634,8.41236042 11.7134283,8.66355011 11.4035584,8.66355011 Z" id="形状" fill="#FFC400"></path>
                        </g>
                    </g>
                </g>
            </g>
        </g>
    </g>
</svg>